<?xml version="1.0" encoding="UTF-8"?>
<svg width="67px" height="68px" viewBox="0 0 67 68" version="1.1" xmlns="http://www.w3.org/2000/svg" xmlns:xlink="http://www.w3.org/1999/xlink">
    <!-- Generator: Sketch 53.2 (72643) - https://sketchapp.com -->
    <title>Group 11</title>
    <desc>Created with Sketch.</desc>
    <defs>
        <linearGradient x1="21.8777044%" y1="0.166283314%" x2="100%" y2="99.8337167%" id="linearGradient-1">
            <stop stop-color="#50E8B5" offset="0%"></stop>
            <stop stop-color="#3EC1C8" offset="100%"></stop>
        </linearGradient>
    </defs>
    <g id="Page-1" stroke="none" stroke-width="1" fill="none" fill-rule="evenodd">
        <g id="Artboard" transform="translate(-178.000000, -294.000000)">
            <g id="Group-9-Copy" transform="translate(159.000000, 295.000000)">
                <g id="Group-11" transform="translate(20.000000, 0.000000)">
                    <g id="Group-10-Copy-5">
                        <g id="Group-16">
                            <g id="Group-10-Copy">
                                <circle id="Oval-4" stroke="#1E4344" cx="32.3529412" cy="32.3529412" r="32.3529412"></circle>
                                <path d="M15.0980392,5.39215686 C7.61781578,9.79451954 2.05937553,17.1547152 -1.91846539e-13,25.8823529 M0,39.9019608 C1.07347241,44.71828 3.32996451,49.1256714 6.47058824,52.8431373 M11.8627451,59.3137255 C17.393757,63.3753155 24.2828904,65.7843137 31.7513382,65.7843137 C35.3507922,65.7843137 38.8156827,65.2247507 42.0588235,64.1903033 M55,55 C59.2273587,50.8597135 62.270413,45.6722149 63.627451,39.9019608 M64.7058824,33.4313725 C64.7058824,18.9518102 55.6916856,6.6444262 43.1372549,2.15686275" id="Oval-4-Copy-6" stroke="#69D7A8" stroke-width="2"></path>
                                <ellipse id="Oval-4-Copy" stroke-opacity="0.689651268" stroke="#295B5C" cx="32.3529412" cy="32.8921569" rx="26.8723055" ry="27.3699407"></ellipse>
                                <ellipse id="Oval-4-Copy-2" stroke-opacity="0.689651268" stroke="#295B5C" fill-opacity="0.233497509" fill="#1F6365" cx="32.3529412" cy="32.8921569" rx="24.8817643" ry="25.3793996"></ellipse>
                            </g>
                        </g>
                    </g>
                    <g id="shui-2" transform="translate(18.150000, 17.325000)" fill="url(#linearGradient-1)" fill-rule="nonzero">
                        <path d="M14.8210526,19.7614132 C18.4769026,19.7614132 21.3917289,16.8465868 21.3917289,13.24015 C21.3917289,9.63368421 18.8227368,5.92842105 14.8210526,0 C10.8193684,5.92842105 8.25037632,9.63368421 8.25037632,13.24015 C8.25037632,16.8465868 11.1652026,19.7614132 14.8210526,19.7614132 Z M14.7716395,4.19930789 C15.1668868,4.79215 15.6115184,5.82962368 15.6115184,6.91648158 C15.6115184,10.1277289 12.3014737,10.6711579 12.3014737,8.69500789 C12.3508868,7.41052632 13.9812026,5.38499211 14.7716395,4.19930789 Z M14.8210526,24.7017447 C11.9062553,24.7017447 7.75636053,23.9606921 5.82962368,21.7869474 C6.42246579,21.4411132 7.26231579,21.0458947 8.34920263,20.7000605 C9.43606053,21.4411132 11.6592184,22.2315789 14.8210526,22.2315789 C17.9828868,22.2315789 20.2060447,21.4411132 21.3423158,20.7000605 C22.4292026,21.0458947 23.2690526,21.4411132 23.8618947,21.7869474 C21.8857447,23.9606921 17.73585,24.7017447 14.8210526,24.7017447 Z M29.6421053,22.2315789 C29.6421053,26.3320605 23.0220447,29.6421053 14.8210526,29.6421053 C6.62006053,29.6421053 0,26.3320605 0,22.2315789 L0,22.0833684 C0.0494131579,20.8482711 0.741052632,19.712 1.87732368,19.1191579 C2.96421053,18.5263158 4.29810526,18.5757289 5.38499211,19.2179553 L5.43437632,19.2179553 C3.50763947,20.1566316 2.47016579,21.2929026 2.47016579,22.2315789 C2.47016579,24.2571132 7.26231579,27.1719395 14.8210526,27.1719395 C22.3797895,27.1719395 27.1719395,24.2571132 27.1719395,22.2315789 C27.1719395,21.2929026 26.1344658,20.1566316 24.2571132,19.2179553 L24.3065263,19.2179553 C25.3934132,18.5757289 26.7273079,18.5263158 27.8635789,19.1685711 C28.9504658,19.7614132 29.6421053,20.9470974 29.6915184,22.1821658 C29.6421053,22.1821658 29.6421053,22.2315789 29.6421053,22.2315789 Z M23.4666763,17.2418342 C25.2452026,15.5126921 27.2707368,16.9947974 28.9010526,15.4138947 C29.3950974,14.91985 29.6421053,14.2776237 29.6421053,13.6847816 C29.6421053,12.10385 27.8141658,10.8687816 25.8874289,11.9062553 C24.4053237,12.7461053 23.5160605,14.8704658 23.4666763,17.2418342 Z M23.6642711,11.0169921 C24.4547368,9.73248158 25.8380447,10.3253237 26.5296842,9.13963947 C27.3695342,7.75636053 25.6404211,6.32363947 24.2571132,7.55873684 C23.5160605,8.25037632 23.36785,9.58427105 23.6642711,11.0169921 L23.6642711,11.0169921 Z M3.75467632,11.9556395 C1.82793947,10.9181658 0,12.1532632 0,13.7341658 C0,14.3270079 0.247007895,14.9692632 0.741052632,15.4633079 C2.37136842,17.0442105 4.39690263,15.5621053 6.17542895,17.2912184 C6.12604474,14.8704658 5.23678158,12.7461053 3.75467632,11.9556395 L3.75467632,11.9556395 Z M5.33557895,7.55873684 C4.00168421,6.27425526 2.22315789,7.70694737 3.06300789,9.13963947 C3.80406053,10.3253237 5.13795526,9.73248158 5.92842105,11.0169921 C6.27425526,9.58427105 6.12604474,8.25037632 5.33557895,7.55873684 Z" id="Shape"></path>
                    </g>
                </g>
            </g>
        </g>
    </g>
</svg>