<?xml version="1.0" encoding="UTF-8"?>
<svg width="67px" height="68px" viewBox="0 0 67 68" version="1.1" xmlns="http://www.w3.org/2000/svg" xmlns:xlink="http://www.w3.org/1999/xlink">
    <!-- Generator: Sketch 53.2 (72643) - https://sketchapp.com -->
    <title>Group 3</title>
    <desc>Created with Sketch.</desc>
    <defs>
        <linearGradient x1="35.0478246%" y1="0%" x2="76.5842014%" y2="100%" id="linearGradient-1">
            <stop stop-color="#50E8B5" offset="0%"></stop>
            <stop stop-color="#3EC1C8" offset="100%"></stop>
        </linearGradient>
        <linearGradient x1="21.8777044%" y1="27.7777778%" x2="100%" y2="72.2222222%" id="linearGradient-2">
            <stop stop-color="#50E8B5" offset="0%"></stop>
            <stop stop-color="#3EC1C8" offset="100%"></stop>
        </linearGradient>
    </defs>
    <g id="Page-1" stroke="none" stroke-width="1" fill="none" fill-rule="evenodd">
        <g id="Artboard" transform="translate(-333.000000, -150.000000)">
            <g id="Group-17-Copy" transform="translate(314.000000, 151.000000)">
                <g id="Group-3" transform="translate(20.000000, 0.000000)">
                    <g id="Group-10-Copy-2">
                        <g id="Group-16">
                            <g id="Group-10-Copy">
                                <circle id="Oval-4" stroke="#1E4344" cx="32.3529412" cy="32.3529412" r="32.3529412"></circle>
                                <path d="M15.0980392,5.39215686 C7.61781578,9.79451954 2.05937553,17.1547152 -1.91846539e-13,25.8823529 M0,39.9019608 C1.07347241,44.71828 3.32996451,49.1256714 6.47058824,52.8431373 M11.8627451,59.3137255 C17.393757,63.3753155 24.2828904,65.7843137 31.7513382,65.7843137 C35.3507922,65.7843137 38.8156827,65.2247507 42.0588235,64.1903033 M55,55 C59.2273587,50.8597135 62.270413,45.6722149 63.627451,39.9019608 M64.7058824,33.4313725 C64.7058824,18.9518102 55.6916856,6.6444262 43.1372549,2.15686275" id="Oval-4-Copy-6" stroke="#69D7A8" stroke-width="2"></path>
                                <ellipse id="Oval-4-Copy" stroke-opacity="0.689651268" stroke="#295B5C" cx="32.3529412" cy="32.8921569" rx="26.8723055" ry="27.3699407"></ellipse>
                                <ellipse id="Oval-4-Copy-2" stroke-opacity="0.689651268" stroke="#295B5C" fill-opacity="0.233497509" fill="#1F6365" cx="32.3529412" cy="32.8921569" rx="24.8817643" ry="25.3793996"></ellipse>
                            </g>
                        </g>
                    </g>
                    <g id="shui" transform="translate(21.450000, 16.500000)" fill-rule="nonzero">
                        <path d="M10.2869093,4.32054232 C9.05976386,5.75235429 8.02141,7.27962038 6.88866033,8.90234061 C6.03909808,10.1432443 5.18953583,11.384148 4.52876519,12.5295976 C2.9240365,15.2023133 2.07447425,17.4932124 2.07447425,19.0204785 C2.07447425,24.1750016 6.13349389,28.3749833 11.1364716,28.3749833 C16.1394493,28.3749833 20.1984689,24.1750016 20.1984689,19.0204785 C20.1984689,17.4932124 19.3489067,15.2023133 17.744178,12.4341435 C17.0834073,11.2886939 16.3282409,10.0477902 15.3842828,8.80688648 C14.345929,7.27962038 13.2131793,5.75235429 11.9860338,4.22508819 C11.7028464,3.84327167 11.419659,3.55690927 11.1364716,3.17509275 L10.2869093,4.32054232 Z M0.186558139,19.0204785 C0.186558139,17.0159417 1.13051619,14.5341343 2.9240365,11.4796021 C3.58480714,10.2386984 4.43436939,8.99779474 5.37832744,7.66143691 C6.51107711,6.03871668 7.64382678,4.51145058 8.87097225,2.98418449 C9.34295128,2.4114597 9.8149303,1.74328078 10.3813051,1.170556 L10.4757009,1.07510187 L11.2308674,0.216014687 L11.9860338,1.07510187 L12.0804296,1.170556 C12.1748254,1.26601013 12.2692212,1.36146426 12.3636171,1.55237252 C12.7412003,1.93418905 13.1187835,2.4114597 13.4963667,2.98418449 C14.7235122,4.51145058 15.8562619,6.03871668 16.9890115,7.66143691 C17.9329696,8.99779474 18.688136,10.2386984 19.4433025,11.4796021 C21.2368228,14.5341343 22.1807808,17.0159417 22.1807808,19.0204785 C21.9919892,25.3204511 17.1778031,30.3795201 11.1364716,30.3795201 C5.00074422,30.3795201 0.186558139,25.3204511 0.186558139,19.0204785 Z" id="Shape" fill="url(#linearGradient-1)"></path>
                        <path d="M10.8694663,26.6090819 C6.68009055,26.6090819 3.32858995,23.2207655 3.32858995,18.9853699 C3.32858995,14.7499744 7.23867399,16.9147321 10.8694663,18.9853699 C14.5002586,21.0560077 18.4103427,14.7499744 18.4103427,18.9853699 C18.3172454,23.2207655 14.9657448,26.6090819 10.8694663,26.6090819 Z" id="Path" fill="url(#linearGradient-2)"></path>
                    </g>
                </g>
            </g>
        </g>
    </g>
</svg>