<?xml version="1.0" encoding="UTF-8"?>
<svg width="67px" height="68px" viewBox="0 0 67 68" version="1.1" xmlns="http://www.w3.org/2000/svg" xmlns:xlink="http://www.w3.org/1999/xlink">
    <!-- Generator: Sketch 53.2 (72643) - https://sketchapp.com -->
    <title>Group 12</title>
    <desc>Created with Sketch.</desc>
    <defs>
        <linearGradient x1="30.8515837%" y1="0%" x2="97.4030471%" y2="100%" id="linearGradient-1">
            <stop stop-color="#32FDF3" offset="0%"></stop>
            <stop stop-color="#048FEC" offset="100%"></stop>
        </linearGradient>
    </defs>
    <g id="Page-1" stroke="none" stroke-width="1" fill="none" fill-rule="evenodd">
        <g id="Artboard" transform="translate(-333.000000, -294.000000)">
            <g id="Group-4-Copy-2" transform="translate(314.000000, 295.000000)">
                <g id="Group-12" transform="translate(20.000000, 0.000000)">
                    <g id="Group-10-Copy-6">
                        <g id="Group-16">
                            <g id="Group-10-Copy">
                                <circle id="Oval-4" stroke="#1E4344" cx="32.3529412" cy="32.3529412" r="32.3529412"></circle>
                                <path d="M15.0980392,5.39215686 C7.61781578,9.79451954 2.05937553,17.1547152 -1.91846539e-13,25.8823529 M0,39.9019608 C1.07347241,44.71828 3.32996451,49.1256714 6.47058824,52.8431373 M11.8627451,59.3137255 C17.393757,63.3753155 24.2828904,65.7843137 31.7513382,65.7843137 C35.3507922,65.7843137 38.8156827,65.2247507 42.0588235,64.1903033 M55,55 C59.2273587,50.8597135 62.270413,45.6722149 63.627451,39.9019608 M64.7058824,33.4313725 C64.7058824,18.9518102 55.6916856,6.6444262 43.1372549,2.15686275" id="Oval-4-Copy-6" stroke="#69D7A8" stroke-width="2"></path>
                                <ellipse id="Oval-4-Copy" stroke-opacity="0.689651268" stroke="#295B5C" cx="32.3529412" cy="32.8921569" rx="26.8723055" ry="27.3699407"></ellipse>
                                <ellipse id="Oval-4-Copy-2" stroke-opacity="0.689651268" stroke="#295B5C" fill-opacity="0.233497509" fill="#1F6365" cx="32.3529412" cy="32.8921569" rx="24.8817643" ry="25.3793996"></ellipse>
                            </g>
                        </g>
                    </g>
                    <g id="shuili" transform="translate(18.975000, 17.325000)" fill="url(#linearGradient-1)" fill-rule="nonzero">
                        <path d="M26.7841755,18.3758327 L25.6321078,19.1475506 C24.1824321,20.1214906 22.2505323,20.056221 20.8733805,18.986776 L20.4048157,18.6218877 C19.737993,18.0991928 18.8001472,18.0606658 18.0906499,18.526821 L16.9443139,19.2747722 C16.4779631,19.5778672 15.8482058,19.4559817 15.5357536,19.0021545 C15.3858218,18.7846558 15.3311496,18.5177352 15.3838888,18.2607207 C15.436628,18.0037061 15.5924087,17.7778935 15.8166059,17.6334737 L16.961509,16.8841245 C18.4064777,15.9346276 20.3166777,16.0133915 21.6743828,17.078452 L22.1443806,17.4419423 C22.8200771,17.9649587 23.765901,17.9983812 24.4786072,17.5244266 L25.6321078,16.7527088 C26.0929879,16.44367 26.7231981,16.5561461 27.0421011,17.0043559 C27.1947806,17.2194483 27.2533972,17.485001 27.2050003,17.7423434 C27.1566035,17.9996858 27.0051765,18.2276365 26.7841755,18.3758327 L26.7841755,18.3758327 Z M25.0130864,15.6035202 L25.0130864,13.9202805 L20.1741156,13.9202805 C20.0449323,13.91915 19.9207031,13.9687193 19.829353,14.0578456 C19.738003,14.146972 19.687197,14.2681773 19.6883557,14.3942159 L19.6883557,14.9366553 C19.539332,14.9128886 19.3630829,14.9128886 19.2011629,14.9128886 C18.7598235,14.9142866 18.3184842,14.9688102 17.8900411,15.0778573 L17.8900411,3.96763642 C17.8904256,3.84195441 17.8393249,3.72133215 17.7481021,3.63259252 C17.6568794,3.5438529 17.5330973,3.49435259 17.4042812,3.49509904 L9.42291688,3.49509904 C9.29410087,3.49435258 9.17031871,3.54385289 9.07909598,3.63259252 C8.98787324,3.72133214 8.93677247,3.84195441 8.93715699,3.96763642 L8.93715699,25.2933328 C8.93677247,25.4190148 8.98787323,25.5396371 9.07909597,25.6283767 C9.1703187,25.7171163 9.29410086,25.7666166 9.42291688,25.7658702 L11.1123295,25.7658702 C11.2417441,25.7681481 11.3665861,25.7191867 11.4583806,25.6301536 C11.550175,25.5411205 11.6010935,25.4196084 11.5995223,25.2933328 L11.5995223,23.0760419 C11.5979606,22.9500129 11.6486841,22.8287202 11.7401649,22.7397294 C11.8316458,22.6507387 11.956114,22.6016085 12.0852822,22.6035046 L14.0254559,22.6035046 C14.041218,23.0243145 14.1773454,23.4339401 14.4166431,23.7862461 L14.525545,23.9232539 L15.0184695,24.5341973 L14.525545,25.1451406 C13.9843821,25.8117259 13.8657979,26.7157819 14.2174672,27.4938471 L0.485794886,27.4938471 C0.356626683,27.4957431 0.23215848,27.446613 0.140677605,27.3576222 C0.0491967294,27.2686315 -0.00152669214,27.1473388 3.50239202e-05,27.0213097 L3.50239202e-05,9.15855754 C-0.00112364127,9.0325189 0.0496823278,8.91131363 0.141032348,8.82218726 C0.232382369,8.7330609 0.35661164,8.68349165 0.485794886,8.6846221 L6.63302167,8.6846221 C6.76195459,8.68574756 6.88596267,8.63636927 6.97727023,8.54754712 C7.0685778,8.45872496 7.11955417,8.33788191 7.11878153,8.21208472 L7.11878153,2.2130967 C7.11721034,2.0868211 7.16812892,1.96530901 7.25992333,1.8762759 C7.35171774,1.78724278 7.47655974,1.73828142 7.60597433,1.74055932 L11.9978741,1.74055932 C12.1313242,1.74869015 12.2622561,1.70247159 12.3594801,1.61291353 C12.456704,1.52335547 12.5115162,1.39847557 12.5108595,1.26802193 L12.5108595,0.472537384 C12.5208395,0.209727713 12.7414005,0.00131819318 13.0109486,0 L13.8019204,0 C14.0672649,0.00230692308 14.2806727,0.213646317 14.2790827,0.472537384 L14.2790827,1.25404154 C14.2779241,1.38008018 14.32873,1.50128544 14.4200801,1.59041181 C14.5114301,1.67953817 14.6356594,1.72910741 14.7648426,1.72797695 L19.1581753,1.72797695 C19.2873435,1.72608094 19.4118117,1.77521111 19.5032926,1.86420187 C19.5947735,1.95319262 19.6454969,2.07448534 19.6439352,2.20051436 L19.6439352,11.680621 C19.6439329,11.8064317 19.6953533,11.9270491 19.786803,12.0157479 C19.8782527,12.1044466 20.0021806,12.1539028 20.131128,12.1531584 L26.3313728,12.1531584 C26.462782,12.1489829 26.5902843,12.1971115 26.6845953,12.2864902 C26.7789063,12.3758689 26.8319205,12.4988162 26.8314619,12.6270938 L26.8314619,15.3532711 C26.2157084,15.1914572 25.5589391,15.2818433 25.0130864,15.6035202 Z M2.26404859,10.4391618 C2.13510128,10.4384174 2.01117331,10.4878736 1.91972362,10.5765724 C1.82827393,10.6652711 1.77685356,10.7858885 1.77685582,10.9116992 L1.77685582,25.2933328 C1.77528463,25.4196084 1.8262032,25.5411205 1.9179976,25.6301536 C2.00979201,25.7191867 2.134634,25.7681481 2.26404859,25.7658702 L3.06505087,25.7658702 C3.19421908,25.7677662 3.3186873,25.718636 3.41016818,25.6296453 C3.50164906,25.5406545 3.55237249,25.4193618 3.55081076,25.2933328 L3.55081076,23.0928184 C3.54949777,22.9637889 3.60264447,22.8399139 3.69777509,22.7502721 C3.79290571,22.6606303 3.92164257,22.6131161 4.05376568,22.618883 L4.85476796,22.618883 C4.98384758,22.6185115 5.10777094,22.6682798 5.19917874,22.7572002 C5.29058653,22.8461206 5.34196131,22.9668803 5.34196076,23.0928184 L5.34196076,25.2933328 C5.34116805,25.4198671 5.39273174,25.5413621 5.48497692,25.6303093 C5.57722211,25.7192564 5.70234636,25.7681321 5.83201939,25.7658702 L6.63302167,25.7658702 C6.76218987,25.7677662 6.88665808,25.718636 6.97813896,25.6296453 C7.06961983,25.5406545 7.12034325,25.4193618 7.11878153,25.2933328 L7.13311073,10.4391535 L2.26404859,10.4391618 Z M4.8791276,13.9146883 L4.07812532,13.9146883 L4.06809488,13.904902 C3.80285171,13.9010746 3.59011869,13.6897803 3.59093252,13.4309666 L3.59093252,12.1797211 L4.8791276,12.1797211 C5.00831085,12.1785907 5.13254012,12.2281599 5.22389014,12.3172863 C5.31524016,12.4064127 5.36604613,12.5276179 5.36488746,12.6536566 L5.36488746,13.4407529 C5.36604612,13.5667915 5.31524015,13.6879968 5.22389013,13.7771231 C5.13254011,13.8662495 5.00831084,13.9158188 4.8791276,13.9146883 Z M5.21013211,15.7992457 C5.30183897,15.8887202 5.35342411,16.0089517 5.3519912,16.1347752 L5.3519912,16.9134833 C5.35356239,17.0397589 5.30264381,17.161271 5.2108494,17.2503041 C5.11905499,17.3393372 4.99421299,17.3882986 4.8647984,17.3860207 L4.06379612,17.3860207 L4.06809488,17.3832246 C3.93914848,17.3847157 3.81491668,17.3359734 3.72292805,17.2477985 C3.63093942,17.1596237 3.57879023,17.0392976 3.57803623,16.9134833 L3.57803623,15.6622378 L4.8647984,15.6622378 C4.99403515,15.6611236 5.11836783,15.7104514 5.21013211,15.7992457 L5.21013211,15.7992457 Z M5.21013211,19.2747722 C5.30183897,19.3642467 5.35342411,19.4844782 5.3519912,19.6103017 L5.3519912,20.3918059 C5.35199175,20.517744 5.30061697,20.6385037 5.20920918,20.7274241 C5.11780138,20.8163445 4.99387802,20.8661128 4.8647984,20.8657413 L4.06809488,20.8657413 C3.93813876,20.8664877 3.81326322,20.8165455 3.72123433,20.7270193 C3.62920543,20.6374932 3.57765175,20.5158041 3.57803623,20.3890098 L3.57803623,19.1377643 L4.8647984,19.1377643 C4.99403515,19.1366501 5.11836783,19.1859779 5.21013211,19.2747722 L5.21013211,19.2747722 Z M14.5155145,19.8759292 L15.008439,20.4882706 L14.7003612,20.8657413 L12.0996114,20.8657413 C11.8311009,20.8657424 11.6132084,20.6537792 11.6124186,20.3918059 L11.6124186,19.1405604 L14.1228945,19.1405604 C14.1916746,19.3530624 14.2905461,19.5543801 14.4166431,19.7389214 L14.4166431,19.7347272 C14.4510331,19.7850567 14.488289,19.8269979 14.5155145,19.8759292 L14.5155145,19.8759292 Z M14.2719181,17.3804285 L12.0953127,17.3804285 C11.9661294,17.381559 11.8419001,17.3319898 11.7505501,17.2428634 C11.6592001,17.153737 11.6083941,17.0325317 11.6095528,16.9064931 L11.6095334,15.6552476 L14.7003612,15.6552476 L14.7003612,15.6580437 C14.9644807,15.6633803 15.175496,15.874235 15.1746577,16.1319792 L15.1746577,16.4605184 L15.0456949,16.5430028 C14.7202268,16.7548193 14.4542293,17.0426971 14.2719181,17.3804285 Z M15.187554,13.4281705 C15.1891252,13.5544461 15.1382066,13.6759582 15.0464122,13.7649913 C14.9546178,13.8540245 14.8297758,13.9029858 14.7003612,13.9007079 L12.0953127,13.9007079 C11.9661445,13.9026039 11.8416762,13.8534738 11.7501954,13.764483 C11.6587145,13.6754923 11.6079911,13.5541995 11.6095528,13.4281705 L11.6095178,12.1769251 L14.7003612,12.1769251 L14.7003612,12.1797211 C14.8294408,12.1793496 14.9533642,12.2291179 15.044772,12.3180384 C15.1361798,12.4069588 15.1875546,12.5277185 15.187554,12.6536566 L15.187554,13.4281705 L15.187554,13.4281705 Z M14.7003612,6.94406278 L12.0953127,6.94406278 C11.9663798,6.94518825 11.8423717,6.89580996 11.7510641,6.80698781 C11.6597565,6.71816565 11.6087801,6.59732259 11.6095528,6.4715254 L11.6095441,5.21887983 L14.7003612,5.21888189 C14.8294408,5.2185104 14.9533642,5.26827868 15.044772,5.35719911 C15.1361798,5.44611954 15.1875546,5.56687922 15.187554,5.69281731 L15.187554,6.4715254 C15.1871745,6.59722106 15.1356321,6.71762141 15.0442656,6.80623948 C14.9528991,6.89485754 14.8291929,6.94443411 14.7003612,6.94406278 L14.7003612,6.94406278 Z M15.187554,9.94984794 C15.1891252,10.0761235 15.1382066,10.1976357 15.0464122,10.2866688 C14.9546178,10.3757019 14.8297758,10.4246633 14.7003612,10.4223854 L12.0953127,10.4223854 C11.9663797,10.4235108 11.8423717,10.3741325 11.7510641,10.2853104 C11.6597565,10.1964882 11.6087801,10.0756451 11.6095528,9.94984794 L11.6095528,8.6986025 L14.7003612,8.6986025 C14.8297758,8.6963246 14.9546178,8.74528596 15.0464122,8.83431908 C15.1382066,8.92335219 15.1891252,9.04486428 15.187554,9.17113988 L15.187554,9.94984794 Z M26.7870413,22.4217594 L25.6349737,23.1948753 C24.189658,24.1797305 22.2527453,24.1205865 20.8733805,23.0494792 L20.4048157,22.6845908 C19.7381644,22.1614512 18.8000148,22.1229117 18.0906499,22.5895242 L16.9486127,23.3220969 C16.4819812,23.6261436 15.8511395,23.5041723 15.5386194,23.0494792 C15.3890007,22.8316475 15.3345182,22.5646256 15.387227,22.3074968 C15.4399358,22.0503679 15.5954904,21.8243309 15.8194717,21.6794004 L16.9643748,20.9314492 C18.4097457,19.9822316 20.3198615,20.0604017 21.6786816,21.1243786 L22.1472464,21.489267 C22.8235633,22.0120753 23.7696179,22.0454855 24.482906,21.5717513 L25.6349737,20.8000334 C26.0953031,20.4898994 26.7260716,20.6018497 27.0449669,21.0502825 C27.1980285,21.2652564 27.2568731,21.53092 27.208455,21.7883754 C27.1600368,22.0458309 27.0083564,22.2738063 26.7870413,22.4217594 L26.7870413,22.4217594 Z M15.8166059,25.760278 L16.961509,25.0109288 C18.4064777,24.0614318 20.3166777,24.1401958 21.6743828,25.2052563 L22.1443806,25.5687466 C22.8200771,26.091763 23.765901,26.1251855 24.4786072,25.6512309 L25.6321078,24.879513 C26.0929879,24.5704743 26.7231981,24.6829504 27.0421011,25.1311602 C27.1947806,25.3462526 27.2533972,25.6118053 27.2050003,25.8691477 C27.1566035,26.1264901 27.0051765,26.3544408 26.7841755,26.502637 L25.6321078,27.2743549 C24.9672175,27.7216684 24.1785969,27.9610772 23.3709601,27.9607924 C22.4639437,27.963516 21.5830344,27.6647 20.8733805,27.1135804 L20.4048157,26.748692 C19.7381644,26.2255524 18.8000148,26.1870129 18.0906499,26.6536253 L16.9443139,27.4029746 C16.4777982,27.7052575 15.8486759,27.5834949 15.5357536,27.1303568 C15.3857502,26.9126381 15.3310409,26.6455015 15.3837729,26.3882596 C15.4365049,26.1310177 15.592314,25.9049599 15.8166059,25.760278 L15.8166059,25.760278 Z" id="Shape"></path>
                    </g>
                </g>
            </g>
        </g>
    </g>
</svg>