<?xml version="1.0" encoding="UTF-8"?>
<svg width="67px" height="68px" viewBox="0 0 67 68" version="1.1" xmlns="http://www.w3.org/2000/svg" xmlns:xlink="http://www.w3.org/1999/xlink">
    <!-- Generator: Sketch 53.2 (72643) - https://sketchapp.com -->
    <title>Group 8</title>
    <desc>Created with Sketch.</desc>
    <defs>
        <linearGradient x1="50%" y1="0%" x2="50%" y2="100%" id="linearGradient-1">
            <stop stop-color="#80C3F3" offset="0%"></stop>
            <stop stop-color="#4A90E2" offset="100%"></stop>
        </linearGradient>
        <linearGradient x1="50%" y1="0%" x2="50%" y2="100%" id="linearGradient-2">
            <stop stop-color="#31B2EF" offset="0%"></stop>
            <stop stop-color="#2D7DDA" offset="100%"></stop>
        </linearGradient>
    </defs>
    <g id="Page-1" stroke="none" stroke-width="1" fill="none" fill-rule="evenodd">
        <g id="Artboard" transform="translate(-648.000000, -150.000000)">
            <g id="Group-11-Copy-2" transform="translate(629.000000, 151.000000)">
                <g id="Group-8" transform="translate(20.000000, 0.000000)">
                    <g id="Group-10-Copy-4">
                        <g id="Group-16">
                            <g id="Group-10-Copy">
                                <circle id="Oval-4" stroke="#1E4344" cx="32.3529412" cy="32.3529412" r="32.3529412"></circle>
                                <path d="M15.0980392,5.39215686 C7.61781578,9.79451954 2.05937553,17.1547152 -1.91846539e-13,25.8823529 M0,39.9019608 C1.07347241,44.71828 3.32996451,49.1256714 6.47058824,52.8431373 M11.8627451,59.3137255 C17.393757,63.3753155 24.2828904,65.7843137 31.7513382,65.7843137 C35.3507922,65.7843137 38.8156827,65.2247507 42.0588235,64.1903033 M55,55 C59.2273587,50.8597135 62.270413,45.6722149 63.627451,39.9019608 M64.7058824,33.4313725 C64.7058824,18.9518102 55.6916856,6.6444262 43.1372549,2.15686275" id="Oval-4-Copy-6" stroke="#69D7A8" stroke-width="2"></path>
                                <ellipse id="Oval-4-Copy" stroke-opacity="0.689651268" stroke="#295B5C" cx="32.3529412" cy="32.8921569" rx="26.8723055" ry="27.3699407"></ellipse>
                                <ellipse id="Oval-4-Copy-2" stroke-opacity="0.689651268" stroke="#295B5C" fill-opacity="0.233497509" fill="#1F6365" cx="32.3529412" cy="32.8921569" rx="24.8817643" ry="25.3793996"></ellipse>
                            </g>
                        </g>
                    </g>
                    <g id="fanghongpailao" transform="translate(18.150000, 20.625000)" fill-rule="nonzero">
                        <path d="M20.247839,23.2313774 C20.2856491,23.8177013 19.8224757,24.3 19.2364195,24.3 C18.6787209,24.3 18.225,23.8460718 18.225,23.2881184 C18.225,22.7112513 18.7070785,22.2478663 19.2836821,22.2762368 C19.8035707,22.3140642 20.2194815,22.7207082 20.247839,23.2313774 L20.247839,23.2313774 Z" id="Path" fill="url(#linearGradient-1)"></path>
                        <path d="M13.5,2.34981513 L13.5,14.5147874 C13.5,15.8144639 12.4384361,16.875 11.1375,16.875 C9.8365639,16.875 8.77500003,15.814464 8.775,14.5147874 L8.775,2.34981513 C8.7854075,1.06053604 9.84697137,0 11.1479075,0 C12.4384362,0 13.5,1.06053604 13.5,2.34981513" id="Path" fill="#31B2EF"></path>
                        <polygon id="Path" fill="#31B2EF" points="0 3.375 8.775 3.375 8.775 14.175 0 14.175"></polygon>
                        <path d="M14.85,4.725 L14.85,13.4613491 C14.85,13.4613491 18.4614157,13.7452016 18.4614157,16.9832226 L18.4614157,20.1161131 C18.4614157,20.8835662 19.0082872,21.3040884 19.627387,21.3040884 C20.1433035,21.3040884 20.6695384,20.8730531 20.6695384,20.095087 C20.6695384,19.4643037 21.1751366,18.949164 21.7942364,18.949164 C22.4133363,18.9491639 22.9189345,19.4643037 22.9189345,20.095087 L22.9189345,22.3869331 C22.9189345,23.0177165 23.4245326,23.5328562 24.0436325,23.5328562 C24.6627323,23.5328562 25.1683305,23.0177165 25.1683305,22.3869331 L25.1683305,21.8612803 L25.1683305,22.1135937 C25.1683305,21.4828104 25.6739287,20.9676706 26.2930285,20.9676706 C26.9121284,20.9676706 27.4177265,21.4828104 27.4177265,22.1135937 L27.4177265,21.8928195 C27.4177265,24.1215873 27.4177265,22.9020728 27.4177265,21.8928195 L27.4177265,23.8482478 C27.4177265,24.4790312 27.9233247,24.9941709 28.5424246,24.9941709 C29.1615244,24.9941709 29.6671226,24.4790312 29.6671226,23.8482478 L29.6671226,19.8637998 L29.6671226,19.8322606 C29.6671226,19.8217476 31.1116889,4.725 14.85,4.725 L14.85,4.725 Z M24.2396808,27.675 L24.0539508,27.675 C23.496761,27.675 23.0324361,27.2124256 23.0324361,26.6342075 L23.0324361,25.8141892 C23.0324361,25.2464842 23.4864427,24.7733967 24.0539508,24.7733967 L24.2396808,24.7733967 C24.7968706,24.7733967 25.2611955,25.2359711 25.2611955,25.8141892 L25.2611955,26.6342075 C25.2611955,27.2019125 24.8071889,27.675 24.2396808,27.675 Z" id="Shape" fill="url(#linearGradient-2)"></path>
                    </g>
                </g>
            </g>
        </g>
    </g>
</svg>