<?xml version="1.0" encoding="UTF-8"?>
<svg width="67px" height="68px" viewBox="0 0 67 68" version="1.1" xmlns="http://www.w3.org/2000/svg" xmlns:xlink="http://www.w3.org/1999/xlink">
    <!-- Generator: Sketch 53.2 (72643) - https://sketchapp.com -->
    <title>Group 5</title>
    <desc>Created with Sketch.</desc>
    <defs>
        <linearGradient x1="80.3375829%" y1="73.4072022%" x2="0%" y2="26.5927978%" id="linearGradient-1">
            <stop stop-color="#50E8C3" offset="0%"></stop>
            <stop stop-color="#C8C13E" offset="100%"></stop>
        </linearGradient>
        <linearGradient x1="21.8777044%" y1="27.7777778%" x2="100%" y2="72.2222222%" id="linearGradient-2">
            <stop stop-color="#6BE850" offset="0%"></stop>
            <stop stop-color="#3EC1C8" offset="100%"></stop>
        </linearGradient>
        <linearGradient x1="21.8777044%" y1="0%" x2="100%" y2="100%" id="linearGradient-3">
            <stop stop-color="#6BE850" offset="0%"></stop>
            <stop stop-color="#3EC1C8" offset="100%"></stop>
        </linearGradient>
        <linearGradient x1="42.9694261%" y1="0%" x2="62.5%" y2="100%" id="linearGradient-4">
            <stop stop-color="#6BE850" offset="0%"></stop>
            <stop stop-color="#3EC1C8" offset="100%"></stop>
        </linearGradient>
    </defs>
    <g id="Page-1" stroke="none" stroke-width="1" fill="none" fill-rule="evenodd">
        <g id="Artboard" transform="translate(-493.000000, -150.000000)">
            <g id="Group-15-Copy" transform="translate(474.000000, 151.000000)">
                <g id="Group-5" transform="translate(20.000000, 0.000000)">
                    <g id="Group-10-Copy-3">
                        <g id="Group-16">
                            <g id="Group-10-Copy">
                                <circle id="Oval-4" stroke="#1E4344" cx="32.3529412" cy="32.3529412" r="32.3529412"></circle>
                                <path d="M15.0980392,5.39215686 C7.61781578,9.79451954 2.05937553,17.1547152 -1.91846539e-13,25.8823529 M0,39.9019608 C1.07347241,44.71828 3.32996451,49.1256714 6.47058824,52.8431373 M11.8627451,59.3137255 C17.393757,63.3753155 24.2828904,65.7843137 31.7513382,65.7843137 C35.3507922,65.7843137 38.8156827,65.2247507 42.0588235,64.1903033 M55,55 C59.2273587,50.8597135 62.270413,45.6722149 63.627451,39.9019608 M64.7058824,33.4313725 C64.7058824,18.9518102 55.6916856,6.6444262 43.1372549,2.15686275" id="Oval-4-Copy-6" stroke="#69D7A8" stroke-width="2"></path>
                                <ellipse id="Oval-4-Copy" stroke-opacity="0.689651268" stroke="#295B5C" cx="32.3529412" cy="32.8921569" rx="26.8723055" ry="27.3699407"></ellipse>
                                <ellipse id="Oval-4-Copy-2" stroke-opacity="0.689651268" stroke="#295B5C" fill-opacity="0.233497509" fill="#1F6365" cx="32.3529412" cy="32.8921569" rx="24.8817643" ry="25.3793996"></ellipse>
                            </g>
                        </g>
                    </g>
                    <g id="Group-16-Copy" transform="translate(17.325000, 18.150000)" fill-rule="nonzero">
                        <g id="nongzi-copy" transform="translate(0.000000, -0.000000)">
                            <path d="M14.0136862,6.33722107 C14.0136862,6.33722107 29.7162079,8.68312871 30.0832046,11.1386829 C30.4501424,13.5942689 25.3066587,25.7723583 21.7244111,26.8161973 C18.143752,27.8599089 0.0662240429,21.6449489 0.00244969257,19.1122538 C-0.0850047094,15.6271554 2.12338808,10.6124495 14.0136862,6.33722107 L14.0136862,6.33722107 Z M10.7616356,10.425662 C9.3664246,11.9171288 15.508677,12.561955 16.2426409,12.4637697 C16.9781345,12.363929 19.4130027,9.63043796 18.9038669,9.33231651 C18.3962902,9.03333546 13.3500859,8.23814329 13.3500859,8.23814329 C13.3500859,8.23814329 12.156876,8.93432246 10.7616356,10.425662 L10.7616356,10.425662 Z M18.9838496,11.8533912 C18.0023482,13.3811522 23.6368768,14.5001264 24.2278779,14.7000308 C24.8187026,14.8999989 25.9057493,13.8048387 26.3462865,13.4076406 C26.7901184,13.0096147 26.9445829,12.4133718 26.5759389,11.8533594 C26.2089422,11.2935698 20.9741506,9.62964203 20.9741506,9.62964203 C20.9741506,9.62964203 19.963939,10.3257575 18.9838496,11.8533594 L18.9838496,11.8533594 L18.9838496,11.8533912 Z M11.9729364,19.9686684 C12.6161513,21.1609951 18.9838496,21.8863369 18.9838496,21.8863369 C18.9838496,21.8863369 22.626724,18.2791119 23.1791605,16.6550122 C22.3520354,15.0325999 16.2907953,14.2028646 16.2907953,14.2028646 C13.5970056,16.5513828 12.3399037,18.7762145 11.9729364,19.9687003 L11.9729364,19.9687003 L11.9729364,19.9686684 Z M4.08977369,15.495223 C1.07470008,18.3772971 6.89646284,19.1547561 8.31614813,19.0734763 C9.43840608,19.0097069 13.0755443,14.9982159 13.3500564,14.202005 C13.6262747,13.4077042 8.29826307,12.1736393 8.29826307,12.1736393 C8.29826307,12.1736393 7.10587687,12.6125121 4.08980311,15.4952548 L4.08980311,15.4952548 L4.08977369,15.495223 Z" id="Shape" fill="url(#linearGradient-1)"></path>
                            <path d="M9.50583161,5.05962941 C9.50583161,5.05962941 11.1548208,9.38337298 14.2587474,7.40184818 C14.2587474,7.40179993 12.7260448,3.6800172 9.50583161,5.05962941 L9.50583161,5.05962941 Z" id="Path" fill="url(#linearGradient-2)"></path>
                            <path d="M12.6744421,2.95256891 C12.6744421,2.95256891 13.0502015,6.08613952 15.8430527,6.12117944 C15.8430527,6.12117944 15.4312463,3.37931604 12.6744421,2.95256891 L12.6744421,2.95256891 Z" id="Path" fill="url(#linearGradient-3)"></path>
                            <path d="M17.4273579,2.95256891 C17.4273579,2.95256891 17.0505912,6.08613952 14.2587474,6.12117944 C14.2587474,6.12117944 14.6705538,3.37931604 17.4273579,2.95256891 L17.4273579,2.95256891 Z" id="Path" fill="url(#linearGradient-3)"></path>
                            <path d="M20.5959685,5.05962941 C20.5959685,5.05962941 18.9481036,9.38337298 15.8430527,7.40184818 C15.8438651,7.40179993 17.3763057,3.6800172 20.5959685,5.05962941 Z" id="Path" fill="url(#linearGradient-2)"></path>
                            <path d="M14.9842837,3.16861054 C14.9842837,3.16861054 13.3273567,2.33794668 15.0214009,0 C15.0224852,0 16.8940662,2.06975343 14.9842837,3.16861054 Z" id="Path" fill="url(#linearGradient-4)"></path>
                        </g>
                    </g>
                </g>
            </g>
        </g>
    </g>
</svg>