<?xml version="1.0" encoding="UTF-8"?>
<svg width="67px" height="68px" viewBox="0 0 67 68" version="1.1" xmlns="http://www.w3.org/2000/svg" xmlns:xlink="http://www.w3.org/1999/xlink">
    <!-- Generator: Sketch 53.2 (72643) - https://sketchapp.com -->
    <title>Group 2</title>
    <desc>Created with Sketch.</desc>
    <defs>
        <linearGradient x1="29.802547%" y1="0%" x2="100%" y2="100%" id="linearGradient-1">
            <stop stop-color="#32FDF3" offset="0%"></stop>
            <stop stop-color="#048FEC" offset="100%"></stop>
        </linearGradient>
    </defs>
    <g id="Page-1" stroke="none" stroke-width="1" fill="none" fill-rule="evenodd">
        <g id="Artboard" transform="translate(-178.000000, -150.000000)">
            <g id="Group-18-Copy" transform="translate(159.000000, 151.000000)">
                <g id="Group-2" transform="translate(20.000000, 0.000000)">
                    <g id="Group-10">
                        <g id="Group-16">
                            <g id="Group-10-Copy">
                                <circle id="Oval-4" stroke="#1E4344" cx="32.3529412" cy="32.3529412" r="32.3529412"></circle>
                                <path d="M15.0980392,5.39215686 C7.61781578,9.79451954 2.05937553,17.1547152 -1.91846539e-13,25.8823529 M0,39.9019608 C1.07347241,44.71828 3.32996451,49.1256714 6.47058824,52.8431373 M11.8627451,59.3137255 C17.393757,63.3753155 24.2828904,65.7843137 31.7513382,65.7843137 C35.3507922,65.7843137 38.8156827,65.2247507 42.0588235,64.1903033 M55,55 C59.2273587,50.8597135 62.270413,45.6722149 63.627451,39.9019608 M64.7058824,33.4313725 C64.7058824,18.9518102 55.6916856,6.6444262 43.1372549,2.15686275" id="Oval-4-Copy-6" stroke="#69D7A8" stroke-width="2"></path>
                                <ellipse id="Oval-4-Copy" stroke-opacity="0.689651268" stroke="#295B5C" cx="32.3529412" cy="32.8921569" rx="26.8723055" ry="27.3699407"></ellipse>
                                <ellipse id="Oval-4-Copy-2" stroke-opacity="0.689651268" stroke="#295B5C" fill-opacity="0.233497509" fill="#1F6365" cx="32.3529412" cy="32.8921569" rx="24.8817643" ry="25.3793996"></ellipse>
                            </g>
                        </g>
                    </g>
                    <g id="gugan" transform="translate(19.800000, 18.150000)" fill="url(#linearGradient-1)" fill-rule="nonzero">
                        <path d="M11.1738904,26.2783857 C11.215206,25.8722466 11.244127,25.5174242 11.2920531,25.1675137 C11.3746844,24.5595976 11.4746166,23.9549389 11.5638583,23.3478242 C11.605174,23.0434396 11.6332686,22.7374005 11.671279,22.4321886 C11.7332525,21.964004 11.7968527,21.4958453 11.8563214,21.0285138 C11.8943318,20.7555656 11.9298632,20.4826173 11.9596105,20.2079887 C12.0009261,19.7993936 12.0306476,19.3891181 12.0736158,18.9805229 C12.0984052,18.7621488 12.1446787,18.5454293 12.166137,18.327081 C12.2124106,17.8779237 12.0273423,17.4718104 11.9067265,17.0532622 C11.8662372,16.9035775 11.8100737,16.7554957 11.7894159,16.6041307 C11.784458,16.557002 11.8786319,16.4494566 11.9265322,16.4494566 C12.8023204,16.4395293 13.675578,16.4428384 14.5496878,16.4420111 C14.6760878,16.4420111 14.7231876,16.4734475 14.6760878,16.614058 C14.5769303,16.9085153 14.5017874,17.2087894 14.4191562,17.5073831 C14.3852774,17.6264845 14.344788,17.7455859 14.3241302,17.8663677 C14.2555721,18.2848901 14.3142145,18.6951398 14.4009773,19.1070698 C14.4629507,19.3998726 14.4827564,19.7009481 14.5108511,19.9979131 C14.5505141,20.4321537 14.5736508,20.8663942 14.6265348,21.2981788 C14.7066614,21.9292844 14.808272,22.5587354 14.8966875,23.1890138 C14.9380031,23.4694075 14.9710556,23.7514816 14.9991244,24.0335298 C15.0404401,24.4578431 15.0718399,24.8854913 15.1139561,25.3089773 C15.1388615,25.5675547 15.172484,25.8252161 15.2147662,26.0815207 C15.222203,26.131157 15.2866296,26.1716934 15.3684087,26.2618403 C15.490703,25.7953361 15.5882079,25.3917046 15.701387,24.9905291 C15.8129392,24.5811067 15.9426186,24.1757948 16.0591287,23.7680012 C16.1392552,23.4818166 16.2061866,23.1931501 16.2846605,22.9069655 C16.3714233,22.5943082 16.4631182,22.2849599 16.5474021,21.9722767 C16.6283549,21.6885739 16.6936336,21.4007348 16.7745864,21.1162047 C16.8563914,20.8101656 16.9481121,20.5066082 17.0340228,20.2005432 C17.1108441,19.9176677 17.1852122,19.6314831 17.2628598,19.3469272 C17.350449,19.0268244 17.4454491,18.7083761 17.5330382,18.3866188 C17.6098595,18.0946433 17.6776171,17.7985314 17.756091,17.5065559 C17.8387223,17.2005167 17.9345488,16.8985881 18.019659,16.5942293 C18.0973066,16.3171188 18.1658905,16.0375524 18.2418855,15.7587874 C18.274938,15.6322405 18.2774169,15.4626755 18.3617008,15.3923832 C18.4608325,15.3113105 18.6558165,15.2567105 18.7698218,15.2955923 C19.2985845,15.4850119 19.8108209,15.7149678 20.3346257,15.9184251 C20.8716257,16.1293797 21.4169147,16.323737 21.9588984,16.5288748 C22.3885035,16.6926489 22.8172824,16.8580775 23.2436081,17.0284699 C23.7946554,17.2476454 24.3192865,17.5065559 24.7992967,17.8580692 C25.2330593,18.1732083 25.5725963,18.5611474 25.766754,19.047532 C25.8551695,19.2625712 25.8510379,19.5123558 25.875001,19.7472754 C25.9187697,20.1806887 25.941106,20.6149551 25.9865274,21.0483684 C26.041064,21.5570634 26.1079695,22.0657585 26.1682904,22.5752809 C26.1715956,22.5984445 26.1724219,22.6224096 26.1757272,22.6455991 C26.2120849,23.1600592 26.2484169,23.6728907 26.2905588,24.1857221 C26.3194798,24.5405704 26.3467481,24.8954186 26.3938479,25.2469577 C26.4681902,25.8143633 25.85597,26.4049326 25.2495597,26.3999689 C21.9250195,26.3693857 18.602132,26.3784857 15.2750612,26.3784857 C10.6054905,26.3784857 5.93674609,26.3809675 1.26467061,26.3925235 C0.850739572,26.394178 0.491370999,26.3040312 0.260855569,25.9723466 C-0.0167338652,25.5728256 -0.0522653128,25.1137927 0.0584347713,24.6464354 C0.0691768368,24.6001081 0.0939662188,24.5554354 0.0939662188,24.5099613 C0.135281856,24.0037739 0.164202801,23.498362 0.21292943,22.9938033 C0.257550318,22.5636991 0.328613213,22.1352494 0.384776657,21.7059467 L0.393039784,21.6356285 C0.430223857,21.1310956 0.424439668,20.6166096 0.519465632,20.1219782 C0.609507898,19.6405831 0.53103401,19.1294062 0.861507459,18.681102 C1.18365611,18.2469001 1.5830436,17.8759174 2.03962284,17.5867754 C2.7369275,17.1442622 3.5292323,16.9018971 4.29842616,16.6099216 C4.90483642,16.3791643 5.50298355,16.1235629 6.10774118,15.8828783 C6.61563056,15.678374 7.12654695,15.4814869 7.6403189,15.2922832 C7.87909746,15.2037909 8.09388713,15.3667377 8.14925008,15.6099042 C8.22113929,15.9258706 8.32936044,16.2335643 8.41361851,16.547902 C8.49129191,16.8332594 8.55737111,17.1210985 8.63587082,17.4072831 C8.71930258,17.7191132 8.81515486,18.0301419 8.9035445,18.3427992 C8.97791264,18.6198838 9.04729709,18.898623 9.12414417,19.1765349 C9.24558632,19.6165922 9.37201217,20.0549949 9.49262801,20.4950005 C9.56944927,20.772111 9.63800741,21.0508502 9.71154924,21.3262802 C9.7999647,21.6488649 9.89579116,21.9664858 9.98420662,22.2882432 C10.0602016,22.5727991 10.124654,22.8614655 10.2047805,23.1468229 C10.2898907,23.4603075 10.3848908,23.770483 10.4691747,24.0831662 C10.5493012,24.3676962 10.6203641,24.6547081 10.6930538,24.94172 C10.7963429,25.3387592 10.8946483,25.7382543 11.0053742,26.1344661 C11.0177689,26.1816207 11.0929376,26.2114025 11.1738904,26.2783857 L11.1738904,26.2783857 Z M7.0306034,6.61476242 C7.12229829,6.11020369 7.23054526,5.48406175 7.35529266,4.86120304 C7.50067205,4.1217506 7.83447658,3.4534436 8.2425976,2.8214849 C8.83159793,1.90047048 9.65332283,1.1517093 10.6244957,0.651083539 C11.0706271,0.417818519 11.539069,0.22922622 12.0455212,0.154797538 C12.4206155,0.0993702744 12.7940572,0.00343250563 13.167499,0.000123415253 C13.5574153,-0.00318567513 13.9523669,0.0604884625 14.3381775,0.138252086 C14.6983982,0.211853495 15.0610979,0.311953479 15.3990081,0.451736696 C16.3327857,0.831959608 17.1544845,1.44396066 17.7866646,2.23006255 C18.2541374,2.80073678 18.631407,3.43982589 18.9053113,4.12503384 C19.0623107,4.51710934 19.1407846,4.9422499 19.2275216,5.35748904 C19.3035424,5.73467364 19.3927842,6.11927784 19.3886526,6.49977153 C19.384521,7.0241848 19.3109792,7.55022676 19.2374374,8.07381275 C19.196948,8.37985191 19.1069058,8.68012601 19.0358429,8.98285608 C18.9011797,9.56101621 18.6459007,10.0895658 18.3707902,10.6156337 C17.9064351,11.5013027 17.2639447,12.2811227 16.483776,12.9059895 C15.9738129,13.3261276 15.3898544,13.647061 14.7620243,13.8522343 C14.1977302,14.0350098 13.6260251,14.1607553 13.0352889,14.1218734 C12.0939306,14.0642338 11.185491,13.7536445 10.4055486,13.2227832 C9.70493874,12.7488336 9.09191798,12.1780931 8.63834975,11.4717315 C8.31565632,10.9828619 8.02531665,10.4733417 7.76919787,9.94644768 C7.56019239,9.49568753 7.42137185,9.00850153 7.28175082,8.5312428 C7.20988744,8.29135959 7.19749275,8.03495679 7.16609286,7.78514632 C7.1231246,7.44105263 7.08594053,7.09530439 7.03142971,6.61639111 L7.0306034,6.61476242 Z" id="Shape"></path>
                    </g>
                </g>
            </g>
        </g>
    </g>
</svg>