<?xml version="1.0" encoding="UTF-8"?>
<svg width="67px" height="68px" viewBox="0 0 67 68" version="1.1" xmlns="http://www.w3.org/2000/svg" xmlns:xlink="http://www.w3.org/1999/xlink">
    <!-- Generator: Sketch 53.2 (72643) - https://sketchapp.com -->
    <title>Group 15</title>
    <desc>Created with Sketch.</desc>
    <defs>
        <linearGradient x1="50%" y1="95.2517724%" x2="-230.222434%" y2="10.6420444%" id="linearGradient-1">
            <stop stop-color="#50E8C3" offset="0%"></stop>
            <stop stop-color="#C8C13E" offset="100%"></stop>
        </linearGradient>
        <linearGradient x1="50%" y1="105.866386%" x2="-230.222434%" y2="1.40993133%" id="linearGradient-2">
            <stop stop-color="#50E8C3" offset="0%"></stop>
            <stop stop-color="#C8C13E" offset="100%"></stop>
        </linearGradient>
        <linearGradient x1="50%" y1="73.7616952%" x2="-230.222434%" y2="29.3331466%" id="linearGradient-3">
            <stop stop-color="#50E8C3" offset="0%"></stop>
            <stop stop-color="#C8C13E" offset="100%"></stop>
        </linearGradient>
        <linearGradient x1="50%" y1="112.632211%" x2="-230.222434%" y2="-4.47467906%" id="linearGradient-4">
            <stop stop-color="#50E8C3" offset="0%"></stop>
            <stop stop-color="#C8C13E" offset="100%"></stop>
        </linearGradient>
        <linearGradient x1="50%" y1="60.0908659%" x2="-230.222434%" y2="41.2234188%" id="linearGradient-5">
            <stop stop-color="#50E8C3" offset="0%"></stop>
            <stop stop-color="#C8C13E" offset="100%"></stop>
        </linearGradient>
        <linearGradient x1="50%" y1="175.699368%" x2="-65.8062101%" y2="-59.3276545%" id="linearGradient-6">
            <stop stop-color="#50E8C3" offset="0%"></stop>
            <stop stop-color="#C8C13E" offset="100%"></stop>
        </linearGradient>
    </defs>
    <g id="Page-1" stroke="none" stroke-width="1" fill="none" fill-rule="evenodd">
        <g id="Artboard" transform="translate(-493.000000, -294.000000)">
            <g id="Group-2-Copy-8" transform="translate(474.000000, 295.000000)">
                <g id="Group-15" transform="translate(20.000000, 0.000000)">
                    <g id="Group-10-Copy-7">
                        <g id="Group-16">
                            <g id="Group-10-Copy">
                                <circle id="Oval-4" stroke="#1E4344" cx="32.3529412" cy="32.3529412" r="32.3529412"></circle>
                                <path d="M15.0980392,5.39215686 C7.61781578,9.79451954 2.05937553,17.1547152 -1.91846539e-13,25.8823529 M0,39.9019608 C1.07347241,44.71828 3.32996451,49.1256714 6.47058824,52.8431373 M11.8627451,59.3137255 C17.393757,63.3753155 24.2828904,65.7843137 31.7513382,65.7843137 C35.3507922,65.7843137 38.8156827,65.2247507 42.0588235,64.1903033 M55,55 C59.2273587,50.8597135 62.270413,45.6722149 63.627451,39.9019608 M64.7058824,33.4313725 C64.7058824,18.9518102 55.6916856,6.6444262 43.1372549,2.15686275" id="Oval-4-Copy-6" stroke="#69D7A8" stroke-width="2"></path>
                                <ellipse id="Oval-4-Copy" stroke-opacity="0.689651268" stroke="#295B5C" cx="32.3529412" cy="32.8921569" rx="26.8723055" ry="27.3699407"></ellipse>
                                <ellipse id="Oval-4-Copy-2" stroke-opacity="0.689651268" stroke="#295B5C" fill-opacity="0.233497509" fill="#1F6365" cx="32.3529412" cy="32.8921569" rx="24.8817643" ry="25.3793996"></ellipse>
                            </g>
                        </g>
                    </g>
                    <g id="slyw" transform="translate(18.150000, 15.675000)" fill-rule="nonzero">
                        <path d="M21.7984317,9.85507265 C25.2319767,9.85507265 29.205,12.375 29.205,12.375 L29.205,8.95496209 C29.205,8.95496209 25.2319767,6.435 21.6192214,6.435 C20.8232154,6.435 20.0447784,6.54533389 19.305,6.71868593 C19.8883659,7.8132009 20.4436703,8.90768109 20.897012,9.89707315 C21.1939412,9.87080982 21.4944261,9.85507265 21.7984317,9.85507265 Z" id="Path" fill="url(#linearGradient-1)"></path>
                        <path d="M7.38853775,12.4498864 C7.30689399,12.4534945 7.22525022,12.4659461 7.14529512,12.4659461 C3.57178598,12.4659461 0,9.9 0,9.9 L0,12.2822852 C0,12.2822852 3.57178598,14.85 7.14529512,14.85 C7.2373813,14.85 7.33119065,14.8393171 7.425,14.8357797 C7.34680257,14.3560754 7.29989788,13.8657235 7.29989788,13.3664574 C7.29993238,13.0757553 7.33467149,12.7672603 7.38853775,12.4498864 Z" id="Path" fill="url(#linearGradient-2)"></path>
                        <path d="M9.43674362,18.5219188 C8.75988926,18.752037 8.05795572,18.9018633 7.36497393,18.9018633 C3.68159889,18.9018633 0,16.335 0,16.335 L0,18.7181367 C0,18.7181367 3.68159889,21.285 7.36497393,21.285 C8.76525322,21.285 10.1960112,20.8247637 11.385,20.2949575 C10.6525878,19.8276439 9.99541311,19.2247648 9.43674362,18.5219188 Z" id="Path" fill="url(#linearGradient-3)"></path>
                        <path d="M22.0039507,12.87 C22.0057652,12.9103112 22.0112451,12.9523961 22.0112451,12.9874554 C22.0112451,14.0709524 21.7459979,15.2158379 21.285,16.3046217 C21.4569443,16.297596 21.6271104,16.2870921 21.8008691,16.2870921 C25.3754088,16.2870921 29.7,18.81 29.7,18.81 L29.7,15.3859169 C29.7000363,15.3859169 25.7102247,12.9576481 22.0039507,12.87 Z" id="Path" fill="url(#linearGradient-4)"></path>
                        <path d="M14.204888,23.4753942 C14.204888,23.4753942 10.7003442,26.8783193 7.38059116,26.8783193 C3.68940562,26.8783193 0,24.3705372 0,24.3705372 L0,26.6972179 C0,26.6972179 3.68940562,29.205 7.38059116,29.205 C10.7003442,29.205 14.204888,26.6972179 14.204888,26.6972179 C14.204888,26.6972179 17.7094674,24.1929251 21.9515362,24.1929251 C25.4578955,24.1929251 29.7,26.6972179 29.7,26.6972179 L29.7,23.2960547 C29.7,23.2960547 25.6409419,20.79 21.9515362,20.79 C17.8942936,20.7899654 14.204888,23.4753942 14.204888,23.4753942 Z" id="Path" fill="url(#linearGradient-5)"></path>
                        <path d="M15.0975,0 C15.0975,0 21.78,10.688671 21.78,12.9760623 C21.78,16.6627779 18.7458194,20.79 15.3234819,20.79 C11.3762996,20.79 8.415,17.1032494 8.415,13.1971579 C8.41499996,9.28934681 15.0228113,1.76904512 15.0975,0 L15.0975,0 Z" id="Path" fill="url(#linearGradient-6)"></path>
                    </g>
                </g>
            </g>
        </g>
    </g>
</svg>