<?xml version="1.0" encoding="UTF-8"?>
<svg width="459px" height="260px" viewBox="0 0 459 260" version="1.1" xmlns="http://www.w3.org/2000/svg" xmlns:xlink="http://www.w3.org/1999/xlink">
    <!-- Generator: Sketch 53.2 (72643) - https://sketchapp.com -->
    <title>kys7 copy 3</title>
    <desc>Created with Sketch.</desc>
    <defs>
        <polygon id="path-1" points="2 9.98398621 2 220.463686 15.4473594 233.911045 67.6782041 233.911045 74.8627177 226.726532 363.389622 226.726532 370.574136 233.911045 421.304835 233.911045 434.752194 220.463686 434.752194 7.65958473 427.09261 -9.09494702e-13 12.3901195 8.94487886e-13"></polygon>
        <filter x="-5.1%" y="-7.7%" width="110.2%" height="118.8%" filterUnits="objectBoundingBox" id="filter-2">
            <feMorphology radius="0.5" operator="dilate" in="SourceAlpha" result="shadowSpreadOuter1"></feMorphology>
            <feOffset dx="0" dy="4" in="shadowSpreadOuter1" result="shadowOffsetOuter1"></feOffset>
            <feGaussianBlur stdDeviation="6.5" in="shadowOffsetOuter1" result="shadowBlurOuter1"></feGaussianBlur>
            <feComposite in="shadowBlurOuter1" in2="SourceAlpha" operator="out" result="shadowBlurOuter1"></feComposite>
            <feColorMatrix values="0 0 0 0 0   0 0 0 0 0   0 0 0 0 0  0 0 0 0.360705389 0" type="matrix" in="shadowBlurOuter1"></feColorMatrix>
        </filter>
        <filter x="-5.4%" y="-8.3%" width="110.9%" height="120.1%" filterUnits="objectBoundingBox" id="filter-3">
            <feGaussianBlur stdDeviation="10" in="SourceAlpha" result="shadowBlurInner1"></feGaussianBlur>
            <feOffset dx="0" dy="0" in="shadowBlurInner1" result="shadowOffsetInner1"></feOffset>
            <feComposite in="shadowOffsetInner1" in2="SourceAlpha" operator="arithmetic" k2="-1" k3="1" result="shadowInnerInner1"></feComposite>
            <feColorMatrix values="0 0 0 0 0.031372549   0 0 0 0 0.905882353   0 0 0 0 0.811764706  0 0 0 0.4862149 0" type="matrix" in="shadowInnerInner1"></feColorMatrix>
        </filter>
        <linearGradient x1="97.5501264%" y1="50%" x2="0%" y2="50%" id="linearGradient-4">
            <stop stop-color="#FFFFFF" stop-opacity="0" offset="0%"></stop>
            <stop stop-color="#FFFFFF" offset="100%"></stop>
        </linearGradient>
        <linearGradient x1="97.5501264%" y1="50%" x2="0%" y2="50%" id="linearGradient-5">
            <stop stop-color="#FFFFFF" stop-opacity="0" offset="0%"></stop>
            <stop stop-color="#FFFFFF" offset="100%"></stop>
        </linearGradient>
    </defs>
    <g id="Page-1" stroke="none" stroke-width="1" fill="none" fill-rule="evenodd">
        <g id="Artboard" transform="translate(-829.000000, -470.000000)">
            <g id="kys7-copy-3" transform="translate(1059.500000, 601.000000) rotate(-180.000000) translate(-1059.500000, -601.000000) translate(842.000000, 481.000000)">
                <g id="Path-39" opacity="0.796758743">
                    <use fill="black" fill-opacity="1" filter="url(#filter-2)" xlink:href="#path-1"></use>
                    <use fill-opacity="0.843230988" fill="#071E31" fill-rule="evenodd" xlink:href="#path-1"></use>
                    <use fill="black" fill-opacity="1" filter="url(#filter-3)" xlink:href="#path-1"></use>
                    <use stroke-opacity="0.7" stroke="#08E7CF" stroke-width="1" xlink:href="#path-1"></use>
                </g>
                <path d="M5,222 L5,221 L210,221 L210,222 L5,222 Z M5,219 L5,218 L210,218 L210,219 L5,219 Z M5,216 L5,215 L210,215 L210,216 L5,216 Z M5,213 L5,212 L210,212 L210,213 L5,213 Z M5,210 L5,209 L210,209 L210,210 L5,210 Z M5,208 L5,207 L210,207 L210,208 L5,208 Z M5,205 L5,204 L210,204 L210,205 L5,205 Z M5,202 L5,201 L210,201 L210,202 L5,202 Z M5,199 L5,198 L210,198 L210,199 L5,199 Z M5,197 L5,196 L210,196 L210,197 L5,197 Z M5,194 L5,193 L210,193 L210,194 L5,194 Z M5,191 L5,190 L210,190 L210,191 L5,191 Z M5,188 L5,187 L210,187 L210,188 L5,188 Z M5,186 L5,185 L210,185 L210,186 L5,186 Z M5,183 L5,182 L210,182 L210,183 L5,183 Z M5,180 L5,179 L210,179 L210,180 L5,180 Z M5,177 L5,176 L210,176 L210,177 L5,177 Z M5,175 L5,174 L210,174 L210,175 L5,175 Z M5,172 L5,171 L210,171 L210,172 L5,172 Z M5,169 L5,168 L210,168 L210,169 L5,169 Z M5,166 L5,165 L210,165 L210,166 L5,166 Z M5,163 L5,162 L210,162 L210,163 L5,163 Z M5,161 L5,160 L210,160 L210,161 L5,161 Z M5,158 L5,157 L210,157 L210,158 L5,158 Z M5,155 L5,154 L210,154 L210,155 L5,155 Z M5,152 L5,151 L210,151 L210,152 L5,152 Z M5,150 L5,149 L210,149 L210,150 L5,150 Z M5,147 L5,146 L210,146 L210,147 L5,147 Z M5,144 L5,143 L210,143 L210,144 L5,144 Z M5,141 L5,140 L210,140 L210,141 L5,141 Z M5,139 L5,138 L210,138 L210,139 L5,139 Z M5,136 L5,135 L210,135 L210,136 L5,136 Z M5,133 L5,132 L210,132 L210,133 L5,133 Z M5,130 L5,129 L210,129 L210,130 L5,130 Z M5,128 L5,127 L210,127 L210,128 L5,128 Z M5,125 L5,124 L210,124 L210,125 L5,125 Z M5,122 L5,121 L210,121 L210,122 L5,122 Z M5,119 L5,118 L210,118 L210,119 L5,119 Z M5,116 L5,115 L210,115 L210,116 L5,116 Z M5,114 L5,113 L210,113 L210,114 L5,114 Z M5,111 L5,110 L210,110 L210,111 L5,111 Z M5,108 L5,107 L210,107 L210,108 L5,108 Z M5,105 L5,104 L210,104 L210,105 L5,105 Z M5,103 L5,102 L210,102 L210,103 L5,103 Z M5,100 L5,99 L210,99 L210,100 L5,100 Z M5,97 L5,96 L210,96 L210,97 L5,97 Z M5,94 L5,93 L210,93 L210,94 L5,94 Z M5,92 L5,91 L210,91 L210,92 L5,92 Z M5,89 L5,88 L210,88 L210,89 L5,89 Z M5,86 L5,85 L210,85 L210,86 L5,86 Z M5,83 L5,82 L210,82 L210,83 L5,83 Z M5,81 L5,80 L210,80 L210,81 L5,81 Z M5,78 L5,77 L210,77 L210,78 L5,78 Z M5,75 L5,74 L210,74 L210,75 L5,75 Z M5,72 L5,71 L210,71 L210,72 L5,72 Z M5,70 L5,69 L210,69 L210,70 L5,70 Z M5,67 L5,66 L210,66 L210,67 L5,67 Z M5,64 L5,63 L210,63 L210,64 L5,64 Z M5,61 L5,60 L210,60 L210,61 L5,61 Z M5,58 L5,57 L210,57 L210,58 L5,58 Z M5,56 L5,55 L210,55 L210,56 L5,56 Z M5,53 L5,52 L210,52 L210,53 L5,53 Z M5,50 L5,49 L210,49 L210,50 L5,50 Z M5,47 L5,46 L210,46 L210,47 L5,47 Z M5,45 L5,44 L210,44 L210,45 L5,45 Z M5,42 L5,41 L210,41 L210,42 L5,42 Z M5,39 L5,38 L210,38 L210,39 L5,39 Z M5,36 L5,35 L210,35 L210,36 L5,36 Z M5,34 L5,33 L210,33 L210,34 L5,34 Z M5,31 L5,30 L210,30 L210,31 L5,31 Z M5,28 L5,27 L210,27 L210,28 L5,28 Z M5,25 L5,24 L210,24 L210,25 L5,25 Z M5,23 L5,22 L210,22 L210,23 L5,23 Z M5,20 L5,19 L210,19 L210,20 L5,20 Z M11.8725199,16 L210,16 L210,17 L11,17 L11.8725199,16 Z M14.3060145,13 L210,13 L210,14 L13,14 L14.3060145,13 Z M17.3886259,10 L210,10 L210,11 L16,11 L17.3886259,10 Z M19.3275886,8 L209,8 L209,9 L18,9 L19.3275886,8 Z M21.0947673,5 L210,5 L210,6 L21,6 L21.0947673,5 Z M21,2 L209,2 L209,3 L21,3 L21,2 Z" id="Combined-Shape" fill="url(#linearGradient-4)" fill-rule="nonzero" style="mix-blend-mode: overlay;" opacity="0.699999988"></path>
                <path d="M229,219 L229,218 L433,218 L433,219 L229,219 Z M229,216 L229,215 L433,215 L433,216 L229,216 Z M229,213 L229,212 L433,212 L433,213 L229,213 Z M229,210 L229,209 L433,209 L433,210 L229,210 Z M229,208 L229,207 L433,207 L433,208 L229,208 Z M229,205 L229,204 L433,204 L433,205 L229,205 Z M229,202 L229,201 L433,201 L433,202 L229,202 Z M229,199 L229,198 L433,198 L433,199 L229,199 Z M229,197 L229,196 L433,196 L433,197 L229,197 Z M229,194 L229,193 L433,193 L433,194 L229,194 Z M229,191 L229,190 L433,190 L433,191 L229,191 Z M229,188 L229,187 L433,187 L433,188 L229,188 Z M229,186 L229,185 L433,185 L433,186 L229,186 Z M229,183 L229,182 L433,182 L433,183 L229,183 Z M229,180 L229,179 L433,179 L433,180 L229,180 Z M229,177 L229,176 L433,176 L433,177 L229,177 Z M229,175 L229,174 L433,174 L433,175 L229,175 Z M229,172 L229,171 L433,171 L433,172 L229,172 Z M229,169 L229,168 L433,168 L433,169 L229,169 Z M229,166 L229,165 L433,165 L433,166 L229,166 Z M229,163 L229,162 L433,162 L433,163 L229,163 Z M229,161 L229,160 L433,160 L433,161 L229,161 Z M229,158 L229,157 L433,157 L433,158 L229,158 Z M229,155 L229,154 L433,154 L433,155 L229,155 Z M229,152 L229,151 L433,151 L433,152 L229,152 Z M229,150 L229,149 L433,149 L433,150 L229,150 Z M229,147 L229,146 L433,146 L433,147 L229,147 Z M229,144 L229,143 L433,143 L433,144 L229,144 Z M229,141 L229,140 L433,140 L433,141 L229,141 Z M229,139 L229,138 L433,138 L433,139 L229,139 Z M229,136 L229,135 L433,135 L433,136 L229,136 Z M229,133 L229,132 L433,132 L433,133 L229,133 Z M229,130 L229,129 L433,129 L433,130 L229,130 Z M229,128 L229,127 L433,127 L433,128 L229,128 Z M229,125 L229,124 L433,124 L433,125 L229,125 Z M229,122 L229,121 L433,121 L433,122 L229,122 Z M229,119 L229,118 L433,118 L433,119 L229,119 Z M229,116 L229,115 L433,115 L433,116 L229,116 Z M229,114 L229,113 L433,113 L433,114 L229,114 Z M229,111 L229,110 L433,110 L433,111 L229,111 Z M229,108 L229,107 L433,107 L433,108 L229,108 Z M229,105 L229,104 L433,104 L433,105 L229,105 Z M229,103 L229,102 L433,102 L433,103 L229,103 Z M229,100 L229,99 L433,99 L433,100 L229,100 Z M229,97 L229,96 L433,96 L433,97 L229,97 Z M229,94 L229,93 L433,93 L433,94 L229,94 Z M229,92 L229,91 L433,91 L433,92 L229,92 Z M229,89 L229,88 L433,88 L433,89 L229,89 Z M229,86 L229,85 L433,85 L433,86 L229,86 Z M229,83 L229,82 L433,82 L433,83 L229,83 Z M229,81 L229,80 L433,80 L433,81 L229,81 Z M229,78 L229,77 L433,77 L433,78 L229,78 Z M229,75 L229,74 L433,74 L433,75 L229,75 Z M229,72 L229,71 L433,71 L433,72 L229,72 Z M229,70 L229,69 L433,69 L433,70 L229,70 Z M229,67 L229,66 L433,66 L433,67 L229,67 Z M229,64 L229,63 L433,63 L433,64 L229,64 Z M229,61 L229,60 L433,60 L433,61 L229,61 Z M229,58 L229,57 L433,57 L433,58 L229,58 Z M229,56 L229,55 L433,55 L433,56 L229,56 Z M229,53 L229,52 L433,52 L433,53 L229,53 Z M229,50 L229,49 L433,49 L433,50 L229,50 Z M229,47 L229,46 L433,46 L433,47 L229,47 Z M229,45 L229,44 L433,44 L433,45 L229,45 Z M229,42 L229,41 L433,41 L433,42 L229,42 Z M229,39 L229,38 L433,38 L433,39 L229,39 Z M229,36 L229,35 L433,35 L433,36 L229,36 Z M229,34 L229,33 L433,33 L433,34 L229,34 Z M229,31 L229,30 L433,30 L433,31 L229,31 Z M229,28 L229,27 L433,27 L433,28 L229,28 Z M229,25 L229,24 L433,24 L433,25 L229,25 Z M229,23 L229,22 L433,22 L433,23 L229,23 Z M229,20 L229,19 L433,19 L433,20 L229,20 Z M229,16 L433,16 L433,17 L229,17 L229,16 Z M229,13 L433,13 L433,14 L229,14 L229,13 Z M229,10 L433,10 L433,11 L229,11 L229,10 Z M231.399391,8 L433,8 L433,9 L230,9 L231.399391,8 Z M234.362651,5 L433,5 L433,6 L233,6 L234.362651,5 Z M237.379104,2 L433,2 L433,3 L236,3 L237.379104,2 Z" id="Combined-Shape-Copy-11" fill="url(#linearGradient-5)" fill-rule="nonzero" style="mix-blend-mode: overlay;" opacity="0.699999988" transform="translate(331.000000, 110.500000) scale(-1, 1) translate(-331.000000, -110.500000) "></path>
                <polygon id="Path-40" fill="#2AC1DB" points="0 56.2331429 4.50655528 51.7265876 4.50655528 12.3373501 11.8439279 4.9999775 61.0658625 4.9999775 66.06584 0 10.273817 0 0 10.273817"></polygon>
                <polygon id="Path-41" fill="#2AC1DB" opacity="0.5" points="82 239.836721 359.124428 239.836721 354.287707 235 86.7194108 235"></polygon>
            </g>
        </g>
    </g>
</svg>