<?xml version="1.0" encoding="UTF-8"?>
<svg width="759px" height="390px" viewBox="0 0 759 390" version="1.1" xmlns="http://www.w3.org/2000/svg" xmlns:xlink="http://www.w3.org/1999/xlink">
    <!-- Generator: Sketch 53.2 (72643) - https://sketchapp.com -->
    <title>kys7</title>
    <desc>Created with Sketch.</desc>
    <defs>
        <polygon id="path-1" points="0 9.98398621 0 350.463686 13.4473594 363.911045 65.6782041 363.911045 72.8627177 356.726532 661.389622 356.726532 668.574136 363.911045 719.304835 363.911045 732.752194 350.463686 732.752194 7.65958473 725.09261 0 10.3901195 1.8189894e-12"></polygon>
        <filter x="-3.0%" y="-4.9%" width="106.0%" height="112.1%" filterUnits="objectBoundingBox" id="filter-2">
            <feMorphology radius="0.5" operator="dilate" in="SourceAlpha" result="shadowSpreadOuter1"></feMorphology>
            <feOffset dx="0" dy="4" in="shadowSpreadOuter1" result="shadowOffsetOuter1"></feOffset>
            <feGaussianBlur stdDeviation="6.5" in="shadowOffsetOuter1" result="shadowBlurOuter1"></feGaussianBlur>
            <feComposite in="shadowBlurOuter1" in2="SourceAlpha" operator="out" result="shadowBlurOuter1"></feComposite>
            <feColorMatrix values="0 0 0 0 0   0 0 0 0 0   0 0 0 0 0  0 0 0 0.360705389 0" type="matrix" in="shadowBlurOuter1"></feColorMatrix>
        </filter>
        <filter x="-3.2%" y="-5.4%" width="106.4%" height="112.9%" filterUnits="objectBoundingBox" id="filter-3">
            <feGaussianBlur stdDeviation="10" in="SourceAlpha" result="shadowBlurInner1"></feGaussianBlur>
            <feOffset dx="0" dy="0" in="shadowBlurInner1" result="shadowOffsetInner1"></feOffset>
            <feComposite in="shadowOffsetInner1" in2="SourceAlpha" operator="arithmetic" k2="-1" k3="1" result="shadowInnerInner1"></feComposite>
            <feColorMatrix values="0 0 0 0 0.031372549   0 0 0 0 0.905882353   0 0 0 0 0.811764706  0 0 0 0.4862149 0" type="matrix" in="shadowInnerInner1"></feColorMatrix>
        </filter>
        <linearGradient x1="97.5501264%" y1="50%" x2="0%" y2="50%" id="linearGradient-4">
            <stop stop-color="#FFFFFF" stop-opacity="0" offset="0%"></stop>
            <stop stop-color="#FFFFFF" offset="100%"></stop>
        </linearGradient>
        <linearGradient x1="97.5501264%" y1="50%" x2="0%" y2="50%" id="linearGradient-5">
            <stop stop-color="#FFFFFF" stop-opacity="0" offset="0%"></stop>
            <stop stop-color="#FFFFFF" offset="100%"></stop>
        </linearGradient>
    </defs>
    <g id="Page-1" stroke="none" stroke-width="1" fill="none" fill-rule="evenodd">
        <g id="Artboard" transform="translate(-67.000000, -82.000000)">
            <g id="kys7" transform="translate(80.000000, 91.000000)">
                <g id="Path-39" opacity="0.801082">
                    <use fill="black" fill-opacity="1" filter="url(#filter-2)" xlink:href="#path-1"></use>
                    <use fill-opacity="0.843230988" fill="#071E31" fill-rule="evenodd" xlink:href="#path-1"></use>
                    <use fill="black" fill-opacity="1" filter="url(#filter-3)" xlink:href="#path-1"></use>
                    <use stroke-opacity="0.7" stroke="#08E7CF" stroke-width="1" xlink:href="#path-1"></use>
                </g>
                <path d="M1,357 L1,356 L206,356 L206,357 L1,357 Z M1,354 L1,353 L206,353 L206,354 L1,354 Z M1,351 L1,350 L206,350 L206,351 L1,351 Z M1,349 L1,348 L206,348 L206,349 L1,349 Z M1,346 L1,345 L206,345 L206,346 L1,346 Z M1,343 L1,342 L206,342 L206,343 L1,343 Z M1,340 L1,339 L206,339 L206,340 L1,340 Z M1,338 L1,337 L206,337 L206,338 L1,338 Z M1,335 L1,334 L206,334 L206,335 L1,335 Z M1,332 L1,331 L206,331 L206,332 L1,332 Z M1,329 L1,328 L206,328 L206,329 L1,329 Z M1,327 L1,326 L206,326 L206,327 L1,327 Z M1,324 L1,323 L206,323 L206,324 L1,324 Z M1,321 L1,320 L206,320 L206,321 L1,321 Z M1,318 L1,317 L206,317 L206,318 L1,318 Z M1,315 L1,314 L206,314 L206,315 L1,315 Z M1,313 L1,312 L206,312 L206,313 L1,313 Z M1,310 L1,309 L206,309 L206,310 L1,310 Z M1,307 L1,306 L206,306 L206,307 L1,307 Z M1,304 L1,303 L206,303 L206,304 L1,304 Z M1,302 L1,301 L206,301 L206,302 L1,302 Z M1,299 L1,298 L206,298 L206,299 L1,299 Z M1,296 L1,295 L206,295 L206,296 L1,296 Z M1,293 L1,292 L206,292 L206,293 L1,293 Z M1,291 L1,290 L206,290 L206,291 L1,291 Z M1,288 L1,287 L206,287 L206,288 L1,288 Z M1,285 L1,284 L206,284 L206,285 L1,285 Z M1,282 L1,281 L206,281 L206,282 L1,282 Z M1,280 L1,279 L206,279 L206,280 L1,280 Z M1,277 L1,276 L206,276 L206,277 L1,277 Z M1,274 L1,273 L206,273 L206,274 L1,274 Z M1,271 L1,270 L206,270 L206,271 L1,271 Z M1,268 L1,267 L206,267 L206,268 L1,268 Z M1,266 L1,265 L206,265 L206,266 L1,266 Z M1,263 L1,262 L206,262 L206,263 L1,263 Z M1,260 L1,259 L206,259 L206,260 L1,260 Z M1,257 L1,256 L206,256 L206,257 L1,257 Z M1,255 L1,254 L206,254 L206,255 L1,255 Z M1,252 L1,251 L206,251 L206,252 L1,252 Z M1,249 L1,248 L206,248 L206,249 L1,249 Z M1,246 L1,245 L206,245 L206,246 L1,246 Z M1,244 L1,243 L206,243 L206,244 L1,244 Z M1,241 L1,240 L206,240 L206,241 L1,241 Z M1,238 L1,237 L206,237 L206,238 L1,238 Z M1,235 L1,234 L206,234 L206,235 L1,235 Z M1,233 L1,232 L206,232 L206,233 L1,233 Z M1,230 L1,229 L206,229 L206,230 L1,230 Z M1,227 L1,226 L206,226 L206,227 L1,227 Z M1,224 L1,223 L206,223 L206,224 L1,224 Z M1,222 L1,221 L206,221 L206,222 L1,222 Z M1,219 L1,218 L206,218 L206,219 L1,219 Z M1,216 L1,215 L206,215 L206,216 L1,216 Z M1,213 L1,212 L206,212 L206,213 L1,213 Z M1,210 L1,209 L206,209 L206,210 L1,210 Z M1,208 L1,207 L206,207 L206,208 L1,208 Z M1,205 L1,204 L206,204 L206,205 L1,205 Z M1,202 L1,201 L206,201 L206,202 L1,202 Z M1,199 L1,198 L206,198 L206,199 L1,199 Z M1,197 L1,196 L206,196 L206,197 L1,197 Z M1,194 L1,193 L206,193 L206,194 L1,194 Z M1,191 L1,190 L206,190 L206,191 L1,191 Z M1,188 L1,187 L206,187 L206,188 L1,188 Z M1,186 L1,185 L206,185 L206,186 L1,186 Z M1,183 L1,182 L206,182 L206,183 L1,183 Z M1,180 L1,179 L206,179 L206,180 L1,180 Z M1,177 L1,176 L206,176 L206,177 L1,177 Z M1,175 L1,174 L206,174 L206,175 L1,175 Z M1,172 L1,171 L206,171 L206,172 L1,172 Z M1,169 L1,168 L206,168 L206,169 L1,169 Z M1,166 L1,165 L206,165 L206,166 L1,166 Z M1,163 L1,162 L206,162 L206,163 L1,163 Z M1,161 L1,160 L206,160 L206,161 L1,161 Z M1,158 L1,157 L206,157 L206,158 L1,158 Z M1,155 L1,154 L206,154 L206,155 L1,155 Z M1,152 L1,151 L206,151 L206,152 L1,152 Z M1,150 L1,149 L206,149 L206,150 L1,150 Z M1,147 L1,146 L206,146 L206,147 L1,147 Z M1,144 L1,143 L206,143 L206,144 L1,144 Z M1,141 L1,140 L206,140 L206,141 L1,141 Z M1,139 L1,138 L206,138 L206,139 L1,139 Z M1,136 L1,135 L206,135 L206,136 L1,136 Z M1,133 L1,132 L206,132 L206,133 L1,133 Z M1,130 L1,129 L206,129 L206,130 L1,130 Z M1,128 L1,127 L206,127 L206,128 L1,128 Z M1,125 L1,124 L206,124 L206,125 L1,125 Z M1,122 L1,121 L206,121 L206,122 L1,122 Z M1,119 L1,118 L206,118 L206,119 L1,119 Z M1,116 L1,115 L206,115 L206,116 L1,116 Z M1,114 L1,113 L206,113 L206,114 L1,114 Z M1,111 L1,110 L206,110 L206,111 L1,111 Z M1,108 L1,107 L206,107 L206,108 L1,108 Z M1,105 L1,104 L206,104 L206,105 L1,105 Z M1,103 L1,102 L206,102 L206,103 L1,103 Z M1,100 L1,99 L206,99 L206,100 L1,100 Z M1,97 L1,96 L206,96 L206,97 L1,97 Z M1,94 L1,93 L206,93 L206,94 L1,94 Z M1,92 L1,91 L206,91 L206,92 L1,92 Z M1,89 L1,88 L206,88 L206,89 L1,89 Z M1,86 L1,85 L206,85 L206,86 L1,86 Z M1,83 L1,82 L206,82 L206,83 L1,83 Z M1,81 L1,80 L206,80 L206,81 L1,81 Z M1,78 L1,77 L206,77 L206,78 L1,78 Z M1,75 L1,74 L206,74 L206,75 L1,75 Z M1,72 L1,71 L206,71 L206,72 L1,72 Z M1,70 L1,69 L206,69 L206,70 L1,70 Z M1,67 L1,66 L206,66 L206,67 L1,67 Z M1,64 L1,63 L206,63 L206,64 L1,64 Z M1,61 L1,60 L206,60 L206,61 L1,61 Z M1,58 L1,57 L206,57 L206,58 L1,58 Z M1,56 L1,55 L206,55 L206,56 L1,56 Z M1,53 L1,52 L206,52 L206,53 L1,53 Z M1,50 L1,49 L206,49 L206,50 L1,50 Z M1,47 L1,46 L206,46 L206,47 L1,47 Z M1,45 L1,44 L206,44 L206,45 L1,45 Z M1,42 L1,41 L206,41 L206,42 L1,42 Z M1,39 L1,38 L206,38 L206,39 L1,39 Z M1,36 L1,35 L206,35 L206,36 L1,36 Z M1,34 L1,33 L206,33 L206,34 L1,34 Z M1,31 L1,30 L206,30 L206,31 L1,31 Z M1,28 L1,27 L206,27 L206,28 L1,28 Z M1,25 L1,24 L206,24 L206,25 L1,25 Z M1,23 L1,22 L206,22 L206,23 L1,23 Z M1,20 L1,19 L206,19 L206,20 L1,20 Z M7.87251987,16 L206,16 L206,17 L7,17 L7.87251987,16 Z M10.3060145,13 L206,13 L206,14 L9,14 L10.3060145,13 Z M13.3886259,10 L206,10 L206,11 L12,11 L13.3886259,10 Z M15.3275886,8 L205,8 L205,9 L14,9 L15.3275886,8 Z M17.0947673,5 L206,5 L206,6 L17,6 L17.0947673,5 Z M17,2 L205,2 L205,3 L17,3 L17,2 Z" id="Combined-Shape" fill="url(#linearGradient-4)" fill-rule="nonzero" style="mix-blend-mode: overlay;" opacity="0.699999988"></path>
                <path d="M527,354 L527,353 L731,353 L731,354 L527,354 Z M527,351 L527,350 L731,350 L731,351 L527,351 Z M527,349 L527,348 L731,348 L731,349 L527,349 Z M527,346 L527,345 L731,345 L731,346 L527,346 Z M527,343 L527,342 L731,342 L731,343 L527,343 Z M527,340 L527,339 L731,339 L731,340 L527,340 Z M527,338 L527,337 L731,337 L731,338 L527,338 Z M527,335 L527,334 L731,334 L731,335 L527,335 Z M527,332 L527,331 L731,331 L731,332 L527,332 Z M527,329 L527,328 L731,328 L731,329 L527,329 Z M527,327 L527,326 L731,326 L731,327 L527,327 Z M527,324 L527,323 L731,323 L731,324 L527,324 Z M527,321 L527,320 L731,320 L731,321 L527,321 Z M527,318 L527,317 L731,317 L731,318 L527,318 Z M527,315 L527,314 L731,314 L731,315 L527,315 Z M527,313 L527,312 L731,312 L731,313 L527,313 Z M527,310 L527,309 L731,309 L731,310 L527,310 Z M527,307 L527,306 L731,306 L731,307 L527,307 Z M527,304 L527,303 L731,303 L731,304 L527,304 Z M527,302 L527,301 L731,301 L731,302 L527,302 Z M527,299 L527,298 L731,298 L731,299 L527,299 Z M527,296 L527,295 L731,295 L731,296 L527,296 Z M527,293 L527,292 L731,292 L731,293 L527,293 Z M527,291 L527,290 L731,290 L731,291 L527,291 Z M527,288 L527,287 L731,287 L731,288 L527,288 Z M527,285 L527,284 L731,284 L731,285 L527,285 Z M527,282 L527,281 L731,281 L731,282 L527,282 Z M527,280 L527,279 L731,279 L731,280 L527,280 Z M527,277 L527,276 L731,276 L731,277 L527,277 Z M527,274 L527,273 L731,273 L731,274 L527,274 Z M527,271 L527,270 L731,270 L731,271 L527,271 Z M527,268 L527,267 L731,267 L731,268 L527,268 Z M527,266 L527,265 L731,265 L731,266 L527,266 Z M527,263 L527,262 L731,262 L731,263 L527,263 Z M527,260 L527,259 L731,259 L731,260 L527,260 Z M527,257 L527,256 L731,256 L731,257 L527,257 Z M527,255 L527,254 L731,254 L731,255 L527,255 Z M527,252 L527,251 L731,251 L731,252 L527,252 Z M527,249 L527,248 L731,248 L731,249 L527,249 Z M527,246 L527,245 L731,245 L731,246 L527,246 Z M527,244 L527,243 L731,243 L731,244 L527,244 Z M527,241 L527,240 L731,240 L731,241 L527,241 Z M527,238 L527,237 L731,237 L731,238 L527,238 Z M527,235 L527,234 L731,234 L731,235 L527,235 Z M527,233 L527,232 L731,232 L731,233 L527,233 Z M527,230 L527,229 L731,229 L731,230 L527,230 Z M527,227 L527,226 L731,226 L731,227 L527,227 Z M527,224 L527,223 L731,223 L731,224 L527,224 Z M527,222 L527,221 L731,221 L731,222 L527,222 Z M527,219 L527,218 L731,218 L731,219 L527,219 Z M527,216 L527,215 L731,215 L731,216 L527,216 Z M527,213 L527,212 L731,212 L731,213 L527,213 Z M527,210 L527,209 L731,209 L731,210 L527,210 Z M527,208 L527,207 L731,207 L731,208 L527,208 Z M527,205 L527,204 L731,204 L731,205 L527,205 Z M527,202 L527,201 L731,201 L731,202 L527,202 Z M527,199 L527,198 L731,198 L731,199 L527,199 Z M527,197 L527,196 L731,196 L731,197 L527,197 Z M527,194 L527,193 L731,193 L731,194 L527,194 Z M527,191 L527,190 L731,190 L731,191 L527,191 Z M527,188 L527,187 L731,187 L731,188 L527,188 Z M527,186 L527,185 L731,185 L731,186 L527,186 Z M527,183 L527,182 L731,182 L731,183 L527,183 Z M527,180 L527,179 L731,179 L731,180 L527,180 Z M527,177 L527,176 L731,176 L731,177 L527,177 Z M527,175 L527,174 L731,174 L731,175 L527,175 Z M527,172 L527,171 L731,171 L731,172 L527,172 Z M527,169 L527,168 L731,168 L731,169 L527,169 Z M527,166 L527,165 L731,165 L731,166 L527,166 Z M527,163 L527,162 L731,162 L731,163 L527,163 Z M527,161 L527,160 L731,160 L731,161 L527,161 Z M527,158 L527,157 L731,157 L731,158 L527,158 Z M527,155 L527,154 L731,154 L731,155 L527,155 Z M527,152 L527,151 L731,151 L731,152 L527,152 Z M527,150 L527,149 L731,149 L731,150 L527,150 Z M527,147 L527,146 L731,146 L731,147 L527,147 Z M527,144 L527,143 L731,143 L731,144 L527,144 Z M527,141 L527,140 L731,140 L731,141 L527,141 Z M527,139 L527,138 L731,138 L731,139 L527,139 Z M527,136 L527,135 L731,135 L731,136 L527,136 Z M527,133 L527,132 L731,132 L731,133 L527,133 Z M527,130 L527,129 L731,129 L731,130 L527,130 Z M527,128 L527,127 L731,127 L731,128 L527,128 Z M527,125 L527,124 L731,124 L731,125 L527,125 Z M527,122 L527,121 L731,121 L731,122 L527,122 Z M527,119 L527,118 L731,118 L731,119 L527,119 Z M527,116 L527,115 L731,115 L731,116 L527,116 Z M527,114 L527,113 L731,113 L731,114 L527,114 Z M527,111 L527,110 L731,110 L731,111 L527,111 Z M527,108 L527,107 L731,107 L731,108 L527,108 Z M527,105 L527,104 L731,104 L731,105 L527,105 Z M527,103 L527,102 L731,102 L731,103 L527,103 Z M527,100 L527,99 L731,99 L731,100 L527,100 Z M527,97 L527,96 L731,96 L731,97 L527,97 Z M527,94 L527,93 L731,93 L731,94 L527,94 Z M527,92 L527,91 L731,91 L731,92 L527,92 Z M527,89 L527,88 L731,88 L731,89 L527,89 Z M527,86 L527,85 L731,85 L731,86 L527,86 Z M527,83 L527,82 L731,82 L731,83 L527,83 Z M527,81 L527,80 L731,80 L731,81 L527,81 Z M527,78 L527,77 L731,77 L731,78 L527,78 Z M527,75 L527,74 L731,74 L731,75 L527,75 Z M527,72 L527,71 L731,71 L731,72 L527,72 Z M527,70 L527,69 L731,69 L731,70 L527,70 Z M527,67 L527,66 L731,66 L731,67 L527,67 Z M527,64 L527,63 L731,63 L731,64 L527,64 Z M527,61 L527,60 L731,60 L731,61 L527,61 Z M527,58 L527,57 L731,57 L731,58 L527,58 Z M527,56 L527,55 L731,55 L731,56 L527,56 Z M527,53 L527,52 L731,52 L731,53 L527,53 Z M527,50 L527,49 L731,49 L731,50 L527,50 Z M527,47 L527,46 L731,46 L731,47 L527,47 Z M527,45 L527,44 L731,44 L731,45 L527,45 Z M527,42 L527,41 L731,41 L731,42 L527,42 Z M527,39 L527,38 L731,38 L731,39 L527,39 Z M527,36 L527,35 L731,35 L731,36 L527,36 Z M527,34 L527,33 L731,33 L731,34 L527,34 Z M527,31 L527,30 L731,30 L731,31 L527,31 Z M527,28 L527,27 L731,27 L731,28 L527,28 Z M527,25 L527,24 L731,24 L731,25 L527,25 Z M527,23 L527,22 L731,22 L731,23 L527,23 Z M527,20 L527,19 L731,19 L731,20 L527,20 Z M527,16 L731,16 L731,17 L527,17 L527,16 Z M527,13 L731,13 L731,14 L527,14 L527,13 Z M527,10 L731,10 L731,11 L527,11 L527,10 Z M529.399391,8 L731,8 L731,9 L528,9 L529.399391,8 Z M532.362651,5 L731,5 L731,6 L531,6 L532.362651,5 Z M535.379104,2 L731,2 L731,3 L534,3 L535.379104,2 Z" id="Combined-Shape-Copy-11" fill="url(#linearGradient-5)" fill-rule="nonzero" style="mix-blend-mode: overlay;" opacity="0.699999988" transform="translate(629.000000, 178.000000) scale(-1, 1) translate(-629.000000, -178.000000) "></path>
                <polygon id="Path-40" fill="#2AC1DB" points="0 56.2331429 4.50655528 51.7265876 4.50655528 12.3373501 11.8439279 4.9999775 61.0658625 4.9999775 66.06584 0 10.273817 0 0 10.273817"></polygon>
                <polygon id="Path-41" fill="#2AC1DB" opacity="0.5" points="80 371.836721 654.124428 371.836721 649.287707 367 84.7194108 367"></polygon>
                <text id="0101100101010101" opacity="0.200000003" font-family="PingFangSC-Regular, PingFang SC" font-size="3" font-weight="normal" fill="#FFFFFF">
                    <tspan x="20" y="259">0101100101010101</tspan>
                </text>
                <text id="010110010" opacity="0.200000003" font-family="PingFangSC-Regular, PingFang SC" font-size="3" font-weight="normal" fill="#FFFFFF">
                    <tspan x="20" y="264">010110010</tspan>
                </text>
                <text id="01011001010101011010" opacity="0.200000003" font-family="PingFangSC-Regular, PingFang SC" font-size="3" font-weight="normal" fill="#FFFFFF">
                    <tspan x="20" y="269">01011001010101011010101</tspan>
                </text>
            </g>
        </g>
    </g>
</svg>