<?xml version="1.0" encoding="UTF-8"?>
<svg width="28px" height="28px" viewBox="0 0 28 28" version="1.1" xmlns="http://www.w3.org/2000/svg" xmlns:xlink="http://www.w3.org/1999/xlink">
    <!-- Generator: Sketch 53.2 (72643) - https://sketchapp.com -->
    <title>left-circle</title>
    <desc>Created with Sketch.</desc>
    <g id="Page-1" stroke="none" stroke-width="1" fill="none" fill-rule="evenodd" opacity="0.800000012">
        <g id="Artboard" transform="translate(-102.000000, -258.000000)" fill-rule="nonzero">
            <g id="left-circle" transform="translate(101.000000, 257.000000)">
                <rect id="Rectangle" fill="#000000" opacity="0" x="0" y="0" width="30" height="30"></rect>
                <path d="M17.6748047,9.59472656 L10.4677734,14.8095703 C10.3388672,14.9033203 10.3388672,15.09375 10.4677734,15.1875 L17.6748047,20.4023438 C17.8300781,20.5136719 18.046875,20.4023438 18.046875,20.2119141 L18.046875,18.8378906 C18.046875,18.5390625 17.9033203,18.2548828 17.6601562,18.0791016 L13.4003906,15 L17.6601562,11.9179688 C17.9033203,11.7421875 18.046875,11.4609375 18.046875,11.1591797 L18.046875,9.78515625 C18.046875,9.59472656 17.8300781,9.48339844 17.6748047,9.59472656 Z" id="Path" fill="#05C7B2"></path>
                <path d="M15,1.875 C7.75195313,1.875 1.875,7.75195313 1.875,15 C1.875,22.2480469 7.75195313,28.125 15,28.125 C22.2480469,28.125 28.125,22.2480469 28.125,15 C28.125,7.75195313 22.2480469,1.875 15,1.875 Z M15,25.8984375 C8.98242188,25.8984375 4.1015625,21.0175781 4.1015625,15 C4.1015625,8.98242188 8.98242188,4.1015625 15,4.1015625 C21.0175781,4.1015625 25.8984375,8.98242188 25.8984375,15 C25.8984375,21.0175781 21.0175781,25.8984375 15,25.8984375 Z" id="Shape" fill="#05C7B2"></path>
            </g>
        </g>
    </g>
</svg>