<?xml version="1.0" encoding="UTF-8"?>
<svg width="28px" height="28px" viewBox="0 0 28 28" version="1.1" xmlns="http://www.w3.org/2000/svg" xmlns:xlink="http://www.w3.org/1999/xlink">
    <!-- Generator: Sketch 53.2 (72643) - https://sketchapp.com -->
    <title>right-circle</title>
    <desc>Created with Sketch.</desc>
    <g id="Page-1" stroke="none" stroke-width="1" fill="none" fill-rule="evenodd" opacity="0.800000012">
        <g id="Artboard" transform="translate(-757.000000, -258.000000)" fill-rule="nonzero">
            <g id="right-circle" transform="translate(756.000000, 257.000000)">
                <rect id="Rectangle" fill="#000000" opacity="0" x="0" y="0" width="30" height="30"></rect>
                <path d="M19.5322266,14.8095703 L12.3251953,9.59472656 C12.1699219,9.48339844 11.953125,9.59179688 11.953125,9.78515625 L11.953125,11.1591797 C11.953125,11.4580078 12.0966797,11.7421875 12.3398438,11.9179688 L16.5996094,15 L12.3398438,18.0820313 C12.0966797,18.2578125 11.953125,18.5390625 11.953125,18.8408203 L11.953125,20.2148438 C11.953125,20.4052734 12.1699219,20.5166016 12.3251953,20.4052734 L19.5322266,15.1904297 C19.6611328,15.0966797 19.6611328,14.9033203 19.5322266,14.8095703 Z" id="Path" fill="#05C7B2"></path>
                <path d="M15,1.875 C7.75195313,1.875 1.875,7.75195313 1.875,15 C1.875,22.2480469 7.75195313,28.125 15,28.125 C22.2480469,28.125 28.125,22.2480469 28.125,15 C28.125,7.75195313 22.2480469,1.875 15,1.875 Z M15,25.8984375 C8.98242188,25.8984375 4.1015625,21.0175781 4.1015625,15 C4.1015625,8.98242188 8.98242188,4.1015625 15,4.1015625 C21.0175781,4.1015625 25.8984375,8.98242188 25.8984375,15 C25.8984375,21.0175781 21.0175781,25.8984375 15,25.8984375 Z" id="Shape" fill="#05C7B2"></path>
            </g>
        </g>
    </g>
</svg>