<?xml version="1.0" encoding="UTF-8"?>
<svg width="60px" height="71px" viewBox="0 0 60 71" version="1.1" xmlns="http://www.w3.org/2000/svg" xmlns:xlink="http://www.w3.org/1999/xlink">
    <!-- Generator: Sketch 53.2 (72643) - https://sketchapp.com -->
    <title>wendang-2 copy 4</title>
    <desc>Created with Sketch.</desc>
    <defs>
        <linearGradient x1="25.3087449%" y1="-19.8330659%" x2="69.9803653%" y2="100%" id="linearGradient-1">
            <stop stop-color="#42FCF4" offset="0%"></stop>
            <stop stop-color="#119BBD" offset="100%"></stop>
        </linearGradient>
        <linearGradient x1="25.7724201%" y1="-19.8330659%" x2="69.6051555%" y2="100%" id="linearGradient-2">
            <stop stop-color="#42FCF4" offset="0%"></stop>
            <stop stop-color="#119BBD" offset="100%"></stop>
        </linearGradient>
    </defs>
    <g id="Page-1" stroke="none" stroke-width="1" fill="none" fill-rule="evenodd" opacity="0.800000012">
        <g id="Artboard" transform="translate(-149.000000, -588.000000)" fill-rule="nonzero">
            <g id="wendang-2-copy-4" transform="translate(149.000000, 588.000000)">
                <path d="M52.21475,25.8335167 L35.2647688,8.81351815 C34.7466338,8.29324785 34.0369441,7.99999528 33.2960037,8 L2.75401522,8 C1.23289557,8 1.12483965e-07,9.21117534 0,10.7053577 L0,68.2946422 C0,69.7888245 1.23301053,70.9999999 2.75401522,71 L50.2459848,71 C51.7669893,71 52.9999999,69.7887116 53,68.2946422 L53,27.7253562 C53.0000601,27.0181609 52.7181848,26.3390616 52.21475,25.8335167 Z M40.9703201,59.5233448 L12.029795,59.5233448 C10.8880632,59.5233448 9.96261467,58.6142849 9.96261467,57.4927718 C9.96261467,56.3712587 10.8880632,55.4621988 12.029795,55.4621988 L40.9704352,55.4621988 C42.112052,55.4621988 43.0376156,56.3712587 43.0376156,57.4927718 C43.0376156,58.6142849 42.1119369,59.5233448 40.9703201,59.5233448 Z M40.9703201,52.4162827 L12.029795,52.4162827 C10.8880632,52.4162827 9.96261467,51.5072228 9.96261467,50.3857097 C9.96261467,49.2641967 10.8880632,48.3551367 12.029795,48.3551367 L40.9704352,48.3551367 C42.112052,48.3551367 43.0376156,49.2641967 43.0376156,50.3857097 C43.0376156,51.5072228 42.1119369,52.4162827 40.9703201,52.4162827 Z M40.9703201,45.5917756 L12.029795,45.5917756 C10.8880632,45.5917756 9.96261467,44.6827156 9.96261467,43.5612026 C9.96261467,42.4396895 10.8880632,41.5306296 12.029795,41.5306295 L40.9704352,41.5306295 C42.112052,41.5306295 43.0376156,42.4396894 43.0376156,43.5612026 C43.0376156,44.6827157 42.1119369,45.5917756 40.9703201,45.5917756 Z M34.4545409,26.622047 L34.4545409,13.2147701 L48.4646115,26.622047 L34.4545409,26.622047 Z" id="Shape" fill="url(#linearGradient-1)"></path>
                <path d="M58.8384383,18.3215723 L42.1176281,1.22566296 C41.35563,0.44690353 40.2935335,0 39.2036185,0 L9.07693367,0 C6.82931762,0 5,1.82918171 5,4.0773284 L5,7.56601602 L7.71882633,7.56601602 L7.71882633,4.0773284 C7.71882633,3.32832478 8.32822035,2.71958176 9.07693367,2.71958176 L39.203505,2.71958176 C39.567302,2.71958176 39.9204258,2.86836033 40.173971,3.12718967 L56.8947813,20.223099 C57.1434231,20.4764189 57.282214,20.8175611 57.2810601,21.1725563 L57.2810601,61.9227851 C57.2810601,62.6717888 56.6730285,63.2805318 55.9243153,63.2805318 L52.7775392,63.2805318 L52.7775392,66 L55.9243153,66 C58.1719313,66 60,64.1708183 60,61.9226716 L60,21.1725563 C60,20.1003283 59.5871517,19.0878388 58.8384383,18.3215723 L58.8384383,18.3215723 Z" id="Path" fill="url(#linearGradient-2)"></path>
            </g>
        </g>
    </g>
</svg>