<?xml version="1.0" encoding="UTF-8"?>
<svg width="16px" height="16px" viewBox="0 0 16 16" version="1.1" xmlns="http://www.w3.org/2000/svg" xmlns:xlink="http://www.w3.org/1999/xlink">
    <!-- Generator: Sketch 53.2 (72643) - https://sketchapp.com -->
    <title>管理员_角色管理</title>
    <desc>Created with Sketch.</desc>
    <g id="Page-1" stroke="none" stroke-width="1" fill="none" fill-rule="evenodd">
        <g id="Artboard" transform="translate(-159.000000, -259.000000)" fill-rule="nonzero">
            <g id="Group-18-Copy" transform="translate(159.000000, 151.000000)">
                <g id="Group-2-Copy-2" transform="translate(0.000000, 106.000000)">
                    <g id="管理员_角色管理" transform="translate(0.000000, 2.000000)">
                        <rect id="Rectangle" fill="#000000" opacity="0" x="0" y="0" width="16" height="16"></rect>
                        <path d="M8.394,15.684 L1.714,15.684 C1.291,15.684 0.889,15.505 0.611,15.195 C0.381557476,14.946313 0.268509253,14.6118938 0.3,14.275 L0.297,13.335 C0.297,13.0588576 0.520857625,12.835 0.797,12.835 C1.07314237,12.835 1.297,13.0588576 1.297,13.335 L1.297,14.333 C1.291,14.418 1.306,14.471 1.359,14.53 C1.45040968,14.6289743 1.57927485,14.6848763 1.714,14.684 L8.394,14.684 C8.67014237,14.684 8.894,14.9078576 8.894,15.184 C8.894,15.4601424 8.67014237,15.684 8.394,15.684 L8.394,15.684 Z" id="Path" fill="#F5BA0D"></path>
                        <path d="M0.793,14.596 C0.516857625,14.596 0.293,14.3721424 0.293,14.096 L0.293,13.158 C0.291116222,10.2924878 2.0004416,7.70272016 4.636,6.578 C4.89006732,6.47073442 5.18312921,6.58804839 5.293,6.841 C5.40139952,7.0956076 5.28331677,7.38991991 5.029,7.499 C2.76141648,8.46587514 1.29077059,10.6938879 1.293,13.159 L1.293,14.097 C1.2924485,14.3727518 1.06875232,14.5960006 0.793,14.596 L0.793,14.596 Z" id="Path" fill="#F5BA0D"></path>
                        <path d="M7.199,8.039 C5.06754249,8.03679523 3.34020477,6.30945751 3.338,4.178 C3.34020372,2.0463801 5.06738074,0.318755743 7.199,0.316 C9.33100979,0.318204769 11.0587952,2.04599021 11.061,4.178 C11.0587943,6.30984752 9.33084802,8.03734641 7.199,8.039 Z M7.199,1.316 C5.61943701,1.31820446 4.33965246,2.59843633 4.338,4.178 C4.33965354,5.75740125 5.61959875,7.03734646 7.199,7.039 C8.77856367,7.03734754 10.0587955,5.75756299 10.061,4.178 C10.0593465,2.59804647 8.77895353,1.31765354 7.199,1.316 L7.199,1.316 Z M12.165,12.959 C11.494,12.959 10.948,12.413 10.948,11.742 C10.948,11.071 11.494,10.525 12.165,10.525 C12.836,10.525 13.382,11.071 13.382,11.742 C13.382,12.413 12.836,12.959 12.165,12.959 Z M12.165,11.225 C11.974319,11.2168102 11.7945282,11.313937 11.6968502,11.4779044 C11.5991721,11.6418718 11.5993692,11.8462203 11.6973633,12.009999 C11.7953574,12.1737777 11.9753352,12.2705575 12.166,12.262 C12.443501,12.2495451 12.661997,12.0208017 12.6617292,11.7430215 C12.6614613,11.4652413 12.4425245,11.2369197 12.165,11.225 L12.165,11.225 Z" id="Shape" fill="#F5BA0D"></path>
                        <path d="M13.04,15.006 C12.8661709,15.0057963 12.7188326,14.8780463 12.694,14.706 C12.6554422,14.4368026 12.4259358,14.2361971 12.154,14.234 C11.886,14.234 11.654,14.435 11.613,14.703 C11.5981027,14.8038282 11.539752,14.8930572 11.4533541,14.9471281 C11.3669562,15.0011989 11.261197,15.0146756 11.164,14.984 C10.6718788,14.8302849 10.2211739,14.5666328 9.846,14.213 C9.77242217,14.1436936 9.73240018,14.0459616 9.73623345,13.9449548 C9.74006673,13.8439479 9.78738092,13.7495304 9.866,13.686 C10.075802,13.5160838 10.1309247,13.2188455 9.996,12.985 C9.85721151,12.7570033 9.57679834,12.6586495 9.326,12.75 C9.23144089,12.7857852 9.12602665,12.7789319 9.036897,12.7312044 C8.94776735,12.6834769 8.88363087,12.5995386 8.861,12.501 C8.803,12.244 8.773,11.989 8.773,11.741 C8.773,11.493 8.803,11.238 8.861,10.981 C8.88298804,10.8824754 8.94690756,10.7984669 9.036,10.751 C9.12514469,10.7034929 9.23040288,10.6965728 9.325,10.732 C9.49323523,10.8630613 9.7223796,10.8841771 9.91173304,10.7860678 C10.1010865,10.6879585 10.2159881,10.4885829 10.2059431,10.2755588 C10.1958981,10.0625347 10.0627453,9.87485595 9.865,9.795 C9.78666645,9.73098151 9.73996651,9.63612226 9.737,9.535 C9.73138186,9.43472712 9.77145552,9.33730033 9.846,9.27 C10.2212524,8.91669969 10.6719564,8.65339007 11.164,8.5 C11.2611969,8.47038666 11.3664655,8.48447396 11.452456,8.53860189 C11.5384464,8.59272982 11.5966701,8.68155504 11.612,8.782 C11.6531844,9.04955024 11.8823078,9.24775682 12.153,9.25 C12.4249358,9.2478029 12.6544422,9.04719735 12.693,8.778 C12.707351,8.67705982 12.7650031,8.58739484 12.850884,8.53244639 C12.936765,8.47749794 13.042337,8.46272877 13.14,8.492 C13.6367267,8.64263896 14.0923685,8.90500932 14.472,9.259 C14.5473084,9.32862884 14.5881764,9.42785925 14.5837463,9.53032832 C14.5793163,9.63279739 14.5300367,9.72813044 14.449,9.791 C14.2329169,9.95775251 14.1735099,10.2586343 14.31,10.495 C14.4513144,10.7283067 14.7401692,10.8258586 14.994,10.726 C15.0885883,10.6887042 15.1946648,10.6940051 15.2850636,10.7405452 C15.3754624,10.7870852 15.4414037,10.8703443 15.466,10.969 C15.5862586,11.4766417 15.5862586,12.0053583 15.466,12.513 C15.4414989,12.6121655 15.375243,12.6958558 15.2843444,12.7424557 C15.1934458,12.7890556 15.0868179,12.7939957 14.992,12.756 C14.7390409,12.654445 14.4497927,12.751992 14.31,12.986 C14.1734625,13.2232163 14.2332738,13.524836 14.45,13.692 C14.5305987,13.7552213 14.5794557,13.8505782 14.5836882,13.9529264 C14.5879206,14.0552747 14.5471036,14.1543399 14.472,14.224 C14.0917273,14.5774182 13.6358217,14.8394015 13.139,14.99 C13.1071044,15.0007413 13.0736553,15.0061473 13.04,15.006 L13.04,15.006 Z M12.153,13.535 C12.624,13.535 13.044,13.804 13.256,14.203 C13.422,14.129 13.582,14.037 13.733,13.929 C13.4829187,13.5380513 13.4724958,13.0400702 13.706,12.639 C13.9425309,12.2387463 14.3794163,12.0003405 14.844,12.018 C14.8637844,11.8348661 14.8637844,11.6501339 14.844,11.467 C14.3801834,11.4836134 13.9442412,11.2458965 13.707,10.847 C13.4773775,10.4451824 13.4881455,9.94946739 13.735,9.558 C13.5855998,9.44923221 13.425025,9.35670893 13.256,9.282 C13.045,9.682 12.624,9.951 12.153,9.951 C11.687,9.951 11.268,9.685 11.054,9.29 C10.8872611,9.36688953 10.7284957,9.46000514 10.58,9.568 C10.816,9.949 10.834,10.438 10.6,10.846 C10.373,11.24 9.928,11.509 9.486,11.469 C9.46432641,11.6506893 9.46432641,11.8343107 9.486,12.016 C9.93983324,12.0160596 10.3613045,12.251009 10.6,12.637 C10.835,13.047 10.817,13.536 10.581,13.917 C10.729,14.026 10.888,14.119 11.055,14.195 C11.269,13.801 11.688,13.535 12.153,13.535 L12.153,13.535 Z" id="Shape" fill="#F5BA0D"></path>
                    </g>
                </g>
            </g>
        </g>
    </g>
</svg>