<?xml version="1.0" encoding="UTF-8"?>
<svg width="16px" height="14px" viewBox="0 0 16 14" version="1.1" xmlns="http://www.w3.org/2000/svg" xmlns:xlink="http://www.w3.org/1999/xlink">
    <!-- Generator: Sketch 53.2 (72643) - https://sketchapp.com -->
    <title>退出</title>
    <desc>Created with Sketch.</desc>
    <g id="Page-1" stroke="none" stroke-width="1" fill="none" fill-rule="evenodd">
        <g id="Artboard" transform="translate(-1317.000000, -28.000000)" fill="#F3B80D">
            <g id="Group-6" transform="translate(37.000000, 19.000000)">
                <g id="Page-1" transform="translate(1280.000000, 9.000000)">
                    <g id="退出">
                        <path d="M12.1132774,4.10590143 C11.9688476,3.96470926 11.734642,3.96468979 11.5901724,4.10590143 L10.9945341,4.68810748 C10.8501043,4.82928019 10.8501043,5.05818471 10.9945341,5.19939634 L12.2943223,6.46983395 L6.36985487,6.46983395 C6.16559448,6.46983395 6,6.63171354 6,6.83136764 L6,7.65475833 C6,7.85441243 6.16561439,8.01629202 6.36985487,8.01629202 L12.2915149,8.01629202 L10.9917267,9.28674909 C10.8472969,9.42794126 10.8472969,9.65686524 10.9917267,9.79803795 L11.5873651,10.380244 C11.7318147,10.5214362 11.9660004,10.5214362 12.1104302,10.3802635 L14.4641933,8.07959983 L15.0599113,7.49731593 C15.2043012,7.35618214 15.2043012,7.1272387 15.0598715,6.98606599 L12.1132774,4.10590143 Z" id="Fill-1"></path>
                        <path d="M9.07675545,0 L1.10966417,0 C0.496803337,0 0,0.485619325 0,1.08460107 L0,12.8453541 C0,13.4443553 0.496783427,13.9299358 1.10966417,13.9299358 L9.07675545,13.9299358 C9.68957646,13.9299358 10.1863798,13.4443553 10.1863798,12.8453541 L10.1863798,11.3193889 C10.1863798,11.1197153 10.0208052,10.9578357 9.81650502,10.9578357 L9.01481432,10.9578357 C8.81055392,10.9578357 8.64493953,11.1197153 8.64493953,11.3193889 L8.64493953,11.8998434 C8.64085791,12.1959091 8.39420835,12.4347389 8.0902966,12.4347389 L2.08075223,12.4347389 C1.77433176,12.4347389 1.52591018,12.1919584 1.52591018,11.8924286 L1.52591018,2.02493508 C1.52591018,1.72542475 1.77431185,1.48262482 2.08075223,1.48262482 L8.09031651,1.48262482 C8.39420835,1.48262482 8.64087782,1.72143517 8.64495944,2.01753977 L8.64495944,2.61513976 C8.64495944,2.81481332 8.81055392,2.97667345 9.01483423,2.97667345 L9.81652493,2.97667345 C10.0208052,2.97667345 10.1863997,2.81481332 10.1863997,2.61513976 L10.1863997,1.08460107 C10.1863997,0.485619325 9.68959637,0 9.07675545,0" id="Fill-4"></path>
                    </g>
                </g>
            </g>
        </g>
    </g>
</svg>